<svg xmlns="http://www.w3.org/2000/svg" height="800" width="1200" viewBox="-104.25 -35.661 903.5 213.966"><g stroke-width=".182" fill-rule="evenodd" fill="#ff1c25"><path d="M542.642 129.42V66.772c0-8.381-2.677-10.76-6.156-12.839l28.342-.256c9.336.374 23.194 2.464 28.087 11.683 7.701 14.51-4.009 29.495-17.955 32.993 9.693 12.114 19.459 27.136 31.998 36.717a39.981 39.981 0 007.374 4.494h-14.107c-7.25 0-11.103-2.16-15.262-7.832l-26.162-35.69c5.4-.894 11.404-3.205 15.86-6.748 7.337-5.831 9.89-17.617 1.273-23.315-5.245-3.47-13.518-3.455-19.185-2.032l.023 65.51c.002 3.966 1.883 8.73 6.004 10.107h-26.29c4.861-.407 6.155-6.344 6.155-10.142zm-89.39-17.33c5.031 12.087 17.724 20.669 30.78 20.669 18.774 0 31.54-16.563 30.169-35.27-1.268-17.257-14.106-34.33-32.37-34.485-25.532-.219-37.098 28.603-28.579 49.085zm-18.647-15.583c.748-12.98 7.134-24.288 16.724-32.946 8.29-7.485 19.86-9.629 30.651-9.629 6.584 0 12.654.964 18.211 2.89 18.332 6.351 28.524 21.361 29.24 40.504 0 25.288-19.886 45.318-45.4 45.318-26.905 0-51.042-17.851-49.426-46.137zm-42.526 32.913v-27.216L368.866 63.69c-2.5-4.174-6.67-7.292-10.774-9.758l11.8-.256c6.495-.141 9.371 2.08 13.081 8.345l17.185 29.014 17.186-25.29c3.699-5.444.27-10.748-3.976-11.813l25.265-.256-33.345 48.528v27.398c0 3.048 2.086 7.866 7.054 9.96h-26.291c4.506-1.502 6.028-5.832 6.028-10.141zM317.31 98.096h24.24L329.364 66.77zm-21.16 27.344l24.238-61.75c1.39-3.539-.787-7.2-3.078-8.73l20.135-.257 30.395 72.792c1.783 4.167 5.713 8.93 9.49 11.746.171.13.343.236.514.322h-27.189c7.625-2.779 5.093-6.359 2.95-11.811l-8.08-20.541h-31.292l-8.08 22.21c-1.09 2.994-.05 7.383 4.104 10.142h-25.265c3.556 0 10.375-12.128 11.157-14.123z"/><path d="M176.878 126.468l8.08-58.67c1.246-6.215.328-8.55-3.976-12.838l22.188-.257 27.188 62.65 23.341-62.65h23.213c-3.193 1.774-5.72 5.78-5.13 10.27l8.08 61.495c.589 4.489 2.96 11.385 8.08 13.095h-27.19c6.03-.605 6.33-10.364 6.029-12.838l-7.054-57.9-28.343 71.764c-4.39-2.593-9.067-8.259-11.03-12.837L195.09 68.825l-8.08 57.643c-.434 3.095 1.492 11.955 6.027 13.095h-23.212c4.263-1.828 6.468-8.846 7.053-13.095zm457.589-28.372h24.239L646.522 66.77zm-21.161 27.344l24.239-61.75c1.39-3.539-.788-7.2-3.078-8.73l20.135-.257 30.394 72.792c1.783 4.167 5.714 8.93 9.491 11.746.17.13.342.236.513.322h-27.189c7.625-2.779 5.093-6.359 2.95-11.811l-8.08-20.541H631.39l-8.08 22.21c-1.089 2.994-.05 7.383 4.104 10.142h-25.265c3.556 0 9.593-10.137 11.158-14.123z"/></g><path d="M0 55.287c42.166-1.376 66.125 21.169 66.125 52.45v31.693H0zm139.694 0c-42.167-1.376-66.125 21.169-66.125 52.45v31.693h66.125zM69.874 0a32.763 32.763 0 0120.563 7.21H49.292A32.817 32.817 0 0169.874 0zm22.511 8.897a32.417 32.417 0 014.243 4.807H43.1a32.38 32.38 0 014.244-4.807zm5.535 6.726a31.194 31.194 0 012.315 4.439H39.494a31.21 31.21 0 012.314-4.439zm3.164 6.571a36.185 36.185 0 011.138 4.051H37.507a35.831 35.831 0 011.137-4.05zm1.542 6.435a33.16 33.16 0 01.31 3.683H36.793c.038-1.241.136-2.481.308-3.683zm.29 6.3a37.335 37.335 0 01-.329 3.295H37.16a31.17 31.17 0 01-.347-3.296zm-.886 6.145a37.436 37.436 0 01-.868 2.946H38.567a37.717 37.717 0 01-.868-2.946zM99.946 47.1a32.114 32.114 0 01-1.331 2.598H41.114a32.785 32.785 0 01-1.33-2.598zm-3.491 5.893a28.735 28.735 0 01-1.794 2.249H45.068a34.081 34.081 0 01-1.794-2.25zm-5.421 5.795c-.81.66-1.64 1.3-2.508 1.9H51.202a40.14 40.14 0 01-2.508-1.9zm-9.761 5.68a33.272 33.272 0 01-22.818 0z" fill-rule="evenodd" fill="#ff1c25"/></svg>