<?xml version="1.0" encoding="UTF-8"?>
<svg xmlns="http://www.w3.org/2000/svg" xmlns:xlink="http://www.w3.org/1999/xlink" width="333.37pt" height="88.37pt" viewBox="0 0 333.37 88.37" version="1.1">
<defs>
<clipPath id="clip1">
  <path d="M 192 71 L 205 71 L 205 88.371094 L 192 88.371094 Z M 192 71 "/>
</clipPath>
<clipPath id="clip2">
  <path d="M 1 0 L 333.371094 0 L 333.371094 85 L 1 85 Z M 1 0 "/>
</clipPath>
</defs>
<g id="surface1">
<path style=" stroke:none;fill-rule:nonzero;fill:rgb(68.998718%,68.998718%,68.998718%);fill-opacity:1;" d="M 5.855469 73.183594 L 4.339844 83.160156 L 4.289063 83.570313 L 4.339844 83.875 L 4.460938 84.046875 L 4.800781 84.179688 L 5.074219 84.25 L 5.261719 84.421875 L 5.207031 84.589844 L 5.003906 85 L 4.730469 85.203125 L 0.78125 85.203125 L 0.578125 85.035156 L 0.648438 84.792969 L 0.78125 84.523438 L 1.089844 84.25 L 1.71875 83.941406 L 2.007813 83.160156 L 3.542969 73.183594 L 0.460938 73.183594 L 0 72.980469 L 0.101563 72.707031 L 0.695313 71.6875 L 0.9375 71.378906 L 0.988281 71.414063 L 1.191406 71.582031 L 2.722656 71.992188 L 9.378906 71.992188 L 9.585938 72.164063 L 9.515625 72.367188 L 9.175781 72.945313 L 8.582031 73.183594 "/>
<path style=" stroke:none;fill-rule:nonzero;fill:rgb(68.998718%,68.998718%,68.998718%);fill-opacity:1;" d="M 13.839844 73.253906 L 14.453125 72.945313 L 14.777344 72.640625 L 14.898438 72.367188 L 14.945313 72.128906 L 14.777344 71.957031 L 10.828125 71.957031 L 10.554688 72.195313 L 10.332031 72.605469 L 10.300781 72.742188 L 10.453125 72.945313 L 11.117188 73.152344 L 11.269531 73.625 L 11.21875 74.035156 L 9.839844 83.160156 L 9.515625 83.910156 L 8.886719 84.214844 L 8.597656 84.523438 L 8.460938 84.792969 L 8.410156 85.035156 L 8.597656 85.167969 L 12.511719 85.167969 L 12.820313 85 L 13.023438 84.589844 L 13.074219 84.421875 L 12.921875 84.25 L 12.632813 84.183594 L 12.292969 84.046875 L 12.136719 83.875 L 12.105469 83.570313 L 12.136719 83.160156 L 12.851563 78.566406 L 17.007813 78.566406 L 16.292969 83.160156 L 15.984375 83.910156 L 15.355469 84.214844 L 15.046875 84.523438 L 14.929688 84.792969 L 14.878906 85.035156 L 15.082031 85.167969 L 18.980469 85.167969 L 19.289063 85 L 19.492188 84.558594 L 19.542969 84.421875 L 19.390625 84.25 L 18.691406 84.011719 L 18.554688 83.570313 L 18.605469 83.160156 L 20.019531 74.035156 L 20.308594 73.253906 L 20.941406 72.945313 L 21.261719 72.640625 L 21.382813 72.367188 L 21.433594 72.128906 L 21.210938 71.957031 L 17.296875 71.957031 L 17.042969 72.195313 L 16.800781 72.605469 L 16.75 72.742188 L 16.921875 72.945313 L 17.585938 73.152344 L 17.757813 73.625 L 17.707031 74.035156 L 17.210938 77.339844 L 13.023438 77.339844 L 13.550781 74.035156 "/>
<path style=" stroke:none;fill-rule:nonzero;fill:rgb(68.998718%,68.998718%,68.998718%);fill-opacity:1;" d="M 23.066406 71.957031 L 29.519531 71.957031 L 29.859375 72.367188 L 29.828125 72.640625 L 29.621094 74 L 29.535156 74.171875 L 29.195313 74.480469 L 29.128906 74.511719 L 28.871094 74.070313 L 28.515625 73.285156 L 27.9375 72.980469 L 26.046875 72.980469 L 25.332031 77.441406 L 28.582031 77.441406 L 28.753906 77.578125 L 28.703125 77.710938 L 28.414063 78.394531 L 27.9375 78.632813 L 25.144531 78.632813 L 24.597656 82.242188 L 24.496094 83.261719 L 24.703125 83.976563 L 25.402344 84.183594 L 26.609375 84.183594 L 27.375 83.941406 L 27.953125 83.332031 L 28.34375 82.71875 L 28.5 82.480469 L 28.976563 82.683594 L 29.027344 82.820313 L 28.769531 84.523438 L 28.023438 85.167969 L 22.503906 85.167969 L 22.097656 85.066406 L 21.976563 84.558594 L 22.0625 83.773438 L 23.542969 74.136719 L 23.578125 73.796875 L 22.828125 72.980469 L 22.574219 72.777344 L 22.589844 72.640625 L 22.828125 72.195313 "/>
<path style=" stroke:none;fill-rule:nonzero;fill:rgb(68.998718%,68.998718%,68.998718%);fill-opacity:1;" d="M 44.09375 74.683594 L 43.71875 75.058594 L 43.292969 74.101563 L 41.777344 72.742188 L 40.773438 73.21875 L 40.347656 74.308594 L 40.570313 75.464844 L 41.402344 76.828125 L 42.269531 78.085938 L 43.410156 80.199219 L 43.71875 81.867188 L 43.496094 83.09375 L 42.765625 84.25 L 41.4375 85.066406 L 39.460938 85.410156 L 37.214844 85.035156 L 36.601563 84.726563 L 36.449219 84.25 L 36.671875 82.136719 L 36.703125 81.902344 L 36.753906 81.699219 L 36.855469 81.59375 L 37.28125 81.390625 L 37.382813 81.558594 L 37.523438 82.070313 L 37.675781 82.617188 L 37.84375 83.09375 L 39.34375 84.179688 L 40.449219 83.839844 L 41.011719 82.992188 L 41.179688 82.070313 L 40.738281 80.402344 L 39.566406 78.53125 L 38.234375 76.519531 L 37.84375 74.886719 L 38.304688 73.285156 L 39.667969 72.164063 L 41.84375 71.753906 L 43.957031 72.128906 L 44.46875 72.84375 L 44.210938 74.476563 "/>
<path style=" stroke:none;fill-rule:nonzero;fill:rgb(68.998718%,68.998718%,68.998718%);fill-opacity:1;" d="M 46.117188 72.707031 L 46.304688 72.945313 L 46.800781 73.320313 L 47.054688 74.136719 L 48.246094 79.894531 L 47.753906 83.125 L 47.445313 83.910156 L 46.816406 84.214844 L 46.511719 84.523438 L 46.390625 84.792969 L 46.339844 85.035156 L 46.511719 85.167969 L 50.460938 85.167969 L 50.75 84.964844 L 50.9375 84.558594 L 51.003906 84.421875 L 50.851563 84.25 L 50.578125 84.148438 L 50.222656 84.011719 L 50.085938 83.839844 L 50.035156 83.535156 L 50.066406 83.125 L 50.390625 81.015625 L 50.578125 80.164063 L 50.988281 79.277344 L 53.933594 74.238281 L 54.867188 73.082031 L 55.140625 72.980469 L 55.449219 72.742188 L 55.617188 72.265625 L 55.652344 72.09375 L 55.378906 71.992188 L 53.183594 71.992188 L 52.980469 72.195313 L 52.742188 72.570313 L 52.722656 72.671875 L 52.757813 72.777344 L 52.878906 72.910156 L 53.03125 73.015625 L 53.285156 73.421875 L 53.132813 73.832031 L 50.257813 78.769531 L 49.4375 74.035156 L 49.40625 73.695313 L 49.488281 73.253906 L 49.8125 73.015625 L 49.984375 72.910156 L 50.136719 72.777344 L 50.222656 72.671875 L 50.375 72.332031 L 50.425781 72.128906 L 50.257813 71.957031 L 46.644531 71.957031 L 46.355469 72.195313 L 46.152344 72.605469 "/>
<path style=" stroke:none;fill-rule:nonzero;fill:rgb(68.998718%,68.998718%,68.998718%);fill-opacity:1;" d="M 68.503906 74.070313 L 67.09375 83.128906 L 67.058594 83.535156 L 67.195313 84.011719 L 67.875 84.25 L 68.027344 84.421875 L 67.976563 84.554688 L 67.789063 85 L 67.484375 85.171875 L 63.535156 85.171875 L 63.347656 85.035156 L 63.414063 84.796875 L 63.535156 84.523438 L 63.839844 84.214844 L 64.46875 83.910156 L 64.777344 83.160156 L 65.933594 75.671875 L 65.902344 75.636719 L 61.03125 84.796875 L 60.777344 85.171875 L 60.453125 85.171875 L 60.230469 84.589844 L 58.308594 75.738281 L 58.289063 75.738281 L 57.183594 83.128906 L 57.132813 83.570313 L 57.183594 83.875 L 57.320313 84.046875 L 57.660156 84.148438 L 57.96875 84.25 L 58.085938 84.386719 L 58.050781 84.554688 L 57.847656 84.964844 L 57.558594 85.171875 L 54.921875 85.171875 L 54.734375 85.035156 L 54.785156 84.796875 L 54.921875 84.523438 L 55.210938 84.214844 L 55.824219 83.910156 L 56.128906 83.160156 L 57.542969 73.933594 L 57.097656 73.289063 L 56.484375 72.878906 L 56.332031 72.675781 L 56.351563 72.539063 L 56.554688 72.164063 L 56.828125 71.960938 L 59.089844 71.960938 L 59.839844 72.675781 L 61.710938 81.457031 L 66.445313 72.605469 L 67.246094 71.960938 L 69.75 71.960938 L 69.953125 72.128906 L 69.882813 72.367188 L 69.75 72.675781 L 69.425781 72.980469 L 68.796875 73.289063 "/>
<path style=" stroke:none;fill-rule:nonzero;fill:rgb(68.998718%,68.998718%,68.998718%);fill-opacity:1;" d="M 71.296875 72.195313 L 71.078125 72.675781 L 71.042969 72.777344 L 71.316406 72.980469 L 72.046875 73.796875 L 72.011719 74.136719 L 70.496094 83.941406 L 70.464844 84.351563 L 70.734375 84.929688 L 73.699219 85.40625 L 76.164063 85 L 77.765625 83.941406 L 78.617188 82.546875 L 78.871094 81.085938 L 78.703125 79.960938 L 78.023438 78.699219 L 76.609375 77.917969 L 76.609375 77.882813 L 78.394531 76.792969 L 79.195313 74.613281 L 78.464844 72.675781 L 76.320313 71.992188 L 71.550781 71.992188 L 71.296875 72.195313 M 74.652344 78.5625 L 75.691406 78.972656 L 76.320313 79.890625 L 76.523438 81.050781 L 76.300781 82.511719 L 75.570313 83.808594 L 74.242188 84.351563 L 73.304688 84.113281 L 72.964844 83.195313 L 73.015625 82.648438 L 73.648438 78.5625 Z M 75.503906 72.910156 L 76.644531 73.355469 L 77 74.648438 L 76.710938 76.214844 L 75.894531 77.234375 L 74.769531 77.578125 L 73.800781 77.578125 L 74.546875 72.910156 "/>
<path style=" stroke:none;fill-rule:nonzero;fill:rgb(68.998718%,68.998718%,68.998718%);fill-opacity:1;" d="M 84.492188 72.367188 L 82.347656 74.035156 L 80.898438 76.621094 L 80.371094 79.859375 L 81.121094 83.261719 L 82.941406 84.964844 L 85.105469 85.40625 L 86.976563 84.964844 L 89.054688 83.570313 L 90.757813 80.980469 L 91.4375 77.097656 L 90.859375 74.238281 L 89.257813 72.402344 L 87.0625 71.753906 L 84.492188 72.367188 M 88.421875 73.933594 L 89.070313 76.621094 L 88.644531 79.890625 L 87.351563 82.992188 L 85.105469 84.285156 L 83.335938 83.230469 L 82.738281 80.332031 L 83.195313 76.792969 L 84.523438 73.96875 L 86.550781 72.910156 "/>
<path style=" stroke:none;fill-rule:nonzero;fill:rgb(68.998718%,68.998718%,68.998718%);fill-opacity:1;" d="M 93.121094 83.160156 L 94.519531 74.035156 L 94.550781 73.625 L 94.414063 73.152344 L 93.753906 72.945313 L 93.597656 72.742188 L 93.652344 72.605469 L 93.835938 72.195313 L 94.144531 71.957031 L 98.078125 71.957031 L 98.28125 72.128906 L 98.210938 72.367188 L 98.09375 72.640625 L 97.769531 72.945313 L 97.15625 73.253906 L 96.867188 74.035156 L 95.589844 82.242188 L 95.507813 83.261719 L 95.695313 83.976563 L 96.375 84.179688 L 97.445313 84.179688 L 98.195313 83.941406 L 98.671875 83.5 L 99.0625 82.890625 L 99.335938 82.480469 L 99.8125 82.683594 L 99.863281 82.855469 L 99.59375 84.554688 L 98.84375 85.167969 L 91.894531 85.167969 L 91.710938 85.035156 L 91.777344 84.792969 L 91.894531 84.523438 L 92.203125 84.25 L 92.816406 83.941406 "/>
<path style=" stroke:none;fill-rule:nonzero;fill:rgb(68.998718%,68.998718%,68.998718%);fill-opacity:1;" d="M 109.992188 72.367188 L 107.847656 74.035156 L 106.382813 76.621094 L 105.855469 79.859375 L 106.621094 83.261719 L 108.460938 84.964844 L 110.621094 85.40625 L 112.460938 84.964844 L 114.554688 83.570313 L 116.257813 80.980469 L 116.921875 77.097656 L 116.34375 74.238281 L 114.761719 72.402344 L 112.546875 71.753906 L 109.992188 72.367188 M 113.925781 73.933594 L 114.574219 76.621094 L 114.148438 79.890625 L 112.851563 82.992188 L 110.621094 84.285156 L 108.820313 83.230469 L 108.222656 80.332031 L 108.699219 76.792969 L 110.027344 73.96875 L 112.035156 72.910156 "/>
<path style=" stroke:none;fill-rule:nonzero;fill:rgb(68.998718%,68.998718%,68.998718%);fill-opacity:1;" d="M 119.289063 72.195313 L 119.050781 72.675781 L 119.015625 72.777344 L 119.289063 72.980469 L 120.039063 73.796875 L 119.988281 74.136719 L 118.625 83.160156 L 118.300781 83.910156 L 117.6875 84.21875 L 117.382813 84.523438 L 117.261719 84.796875 L 117.195313 85.035156 L 117.382813 85.171875 L 121.316406 85.171875 L 121.605469 85 L 121.808594 84.554688 L 121.859375 84.421875 L 121.707031 84.25 L 121.316406 84.148438 L 121.078125 84.046875 L 120.941406 83.875 L 120.890625 83.570313 L 120.941406 83.160156 L 121.519531 79.347656 L 124.292969 79.347656 L 124.789063 79.109375 L 125.058594 78.425781 L 125.109375 78.292969 L 124.925781 78.15625 L 121.6875 78.15625 L 122.523438 72.980469 L 124.414063 72.980469 L 124.992188 73.285156 L 125.332031 74.070313 L 125.589844 74.546875 L 125.65625 74.511719 L 125.996094 74.171875 L 126.082031 74 L 126.285156 72.640625 L 126.320313 72.402344 L 125.980469 71.992188 L 119.527344 71.992188 "/>
<g clip-path="url(#clip1)" clip-rule="nonzero">
<path style=" stroke:none;fill-rule:nonzero;fill:rgb(68.998718%,68.998718%,68.998718%);fill-opacity:1;" d="M 197.089844 72.367188 L 194.878906 74.035156 L 193.378906 76.621094 L 192.851563 79.859375 L 193.566406 83.125 L 195.4375 84.898438 L 198.027344 85.40625 L 201.449219 87.824219 L 202.484375 88.371094 L 203.082031 88.164063 L 204.375 87.585938 L 204.308594 87.109375 L 201.820313 86.089844 L 199.730469 84.898438 L 201.496094 83.707031 L 202.910156 81.96875 L 203.882813 79.722656 L 204.222656 77.097656 L 203.628906 74.238281 L 201.992188 72.402344 L 199.730469 71.753906 L 197.089844 72.367188 M 201.140625 73.933594 L 201.789063 76.621094 L 201.359375 79.890625 L 200.035156 82.992188 L 197.71875 84.285156 L 195.898438 83.230469 L 195.285156 80.332031 L 195.761719 76.792969 L 197.121094 73.96875 L 199.199219 72.910156 "/>
</g>
<path style=" stroke:none;fill-rule:nonzero;fill:rgb(68.998718%,68.998718%,68.998718%);fill-opacity:1;" d="M 215.835938 73.253906 L 216.480469 72.945313 L 216.785156 72.640625 L 216.9375 72.367188 L 216.992188 72.128906 L 216.785156 71.957031 L 214.0625 71.957031 L 213.773438 72.195313 L 213.554688 72.605469 L 213.5 72.742188 L 213.652344 72.910156 L 214.351563 73.152344 L 214.519531 73.59375 L 214.453125 74.035156 L 213.554688 79.789063 L 212.445313 82.855469 L 210.4375 83.910156 L 208.886719 83.230469 L 208.359375 81.289063 L 208.460938 80.097656 L 209.449219 74.035156 L 209.753906 73.253906 L 210.386719 72.945313 L 210.691406 72.640625 L 210.8125 72.367188 L 210.894531 72.128906 L 210.691406 71.957031 L 206.675781 71.957031 L 206.367188 72.195313 L 206.179688 72.605469 L 206.128906 72.742188 L 206.265625 72.910156 L 206.964844 73.152344 L 207.117188 73.59375 L 207.046875 74.035156 L 206.179688 79.789063 L 206.046875 81.289063 L 206.453125 83.5 L 207.730469 84.933594 L 209.789063 85.40625 C 212.429688 85.40625 214.027344 83.570313 214.605469 79.894531 L 215.546875 74.035156 L 215.835938 73.253906 "/>
<path style=" stroke:none;fill-rule:nonzero;fill:rgb(68.998718%,68.998718%,68.998718%);fill-opacity:1;" d="M 222.746094 83.160156 L 222.625 83.910156 L 222.21875 84.21875 L 221.894531 84.523438 L 221.742188 84.792969 L 221.671875 85.035156 L 221.894531 85.167969 L 225.65625 85.167969 L 225.996094 84.964844 L 226.253906 84.523438 L 226.269531 84.386719 L 226.117188 84.21875 L 225.605469 84.011719 L 225.332031 83.707031 L 225.164063 82.992188 L 224.789063 80.640625 L 224.378906 78.054688 L 223.953125 75.160156 L 223.578125 72.503906 L 223.324219 71.957031 L 220.617188 71.957031 L 220.226563 72.195313 L 220.125 72.433594 L 220.054688 72.605469 L 220.125 72.742188 L 220.363281 72.84375 L 220.632813 72.980469 L 220.820313 73.152344 L 221.058594 73.765625 L 220.871094 74.445313 L 216.921875 82.71875 L 216.378906 83.636719 L 215.765625 84.113281 L 215.546875 84.21875 L 215.355469 84.316406 L 215.238281 84.453125 L 215.050781 84.898438 L 215 85.066406 L 215.339844 85.167969 L 217.671875 85.167969 L 217.773438 85.136719 L 217.875 85.066406 L 217.960938 84.929688 L 218.183594 84.589844 L 218.199219 84.488281 L 217.976563 84.21875 L 217.65625 84.011719 L 217.554688 83.773438 L 217.640625 83.433594 L 218.660156 81.355469 L 222.523438 81.355469 Z M 221.671875 74.886719 L 221.707031 74.886719 L 222.335938 80.164063 L 219.238281 80.164063 "/>
<path style=" stroke:none;fill-rule:nonzero;fill:rgb(68.998718%,68.998718%,68.998718%);fill-opacity:1;" d="M 228.449219 83.941406 L 227.816406 84.25 L 227.496094 84.523438 L 227.375 84.796875 L 227.308594 85.035156 L 227.496094 85.171875 L 234.609375 85.171875 L 235.394531 84.554688 L 235.683594 82.855469 L 235.617188 82.683594 L 235.171875 82.480469 L 234.847656 82.886719 L 234.441406 83.503906 L 233.964844 83.941406 L 233.179688 84.179688 L 232.09375 84.179688 L 231.394531 83.976563 L 231.207031 83.261719 L 231.289063 82.242188 L 232.585938 74.035156 L 232.890625 73.253906 L 233.539063 72.945313 L 233.84375 72.640625 L 233.980469 72.367188 L 234.03125 72.128906 L 233.828125 71.960938 L 229.792969 71.960938 L 229.503906 72.195313 L 229.300781 72.605469 L 229.265625 72.742188 L 229.417969 72.914063 L 230.097656 73.152344 L 230.234375 73.628906 L 230.203125 74.035156 L 228.773438 83.160156 "/>
<path style=" stroke:none;fill-rule:nonzero;fill:rgb(68.998718%,68.998718%,68.998718%);fill-opacity:1;" d="M 238.371094 83.125 L 239.804688 74.035156 L 239.855469 73.59375 L 239.699219 73.152344 L 239.019531 72.910156 L 238.867188 72.742188 L 238.917969 72.605469 L 239.121094 72.195313 L 239.410156 71.957031 L 243.445313 71.957031 L 243.652344 72.128906 L 243.601563 72.367188 L 243.464844 72.640625 L 243.140625 72.945313 L 242.511719 73.253906 L 242.203125 74.035156 L 240.773438 83.125 L 240.707031 83.570313 L 240.859375 83.976563 L 241.558594 84.25 L 241.710938 84.386719 L 241.675781 84.558594 L 241.453125 84.964844 L 241.148438 85.167969 L 237.132813 85.167969 L 236.910156 85.035156 L 236.996094 84.792969 L 237.132813 84.523438 L 237.421875 84.214844 L 238.066406 83.910156 "/>
<path style=" stroke:none;fill-rule:nonzero;fill:rgb(68.998718%,68.998718%,68.998718%);fill-opacity:1;" d="M 250.714844 73.183594 L 249.164063 83.160156 L 249.117188 83.570313 L 249.164063 83.875 L 249.304688 84.046875 L 249.644531 84.179688 L 249.914063 84.25 L 250.121094 84.421875 L 250.070313 84.589844 L 249.863281 85 L 249.574219 85.203125 L 245.539063 85.203125 L 245.335938 85.035156 L 245.386719 84.792969 L 245.539063 84.523438 L 245.847656 84.25 L 246.492188 83.941406 L 246.78125 83.160156 L 248.367188 73.183594 L 245.199219 73.183594 L 244.757813 72.980469 L 244.824219 72.707031 L 245.4375 71.6875 L 245.609375 71.378906 L 245.761719 71.414063 L 245.964844 71.582031 L 247.515625 71.992188 L 254.324219 71.992188 L 254.5625 72.164063 L 254.480469 72.367188 L 254.085938 72.945313 L 253.507813 73.183594 "/>
<path style=" stroke:none;fill-rule:nonzero;fill:rgb(68.998718%,68.998718%,68.998718%);fill-opacity:1;" d="M 255.378906 72.605469 L 255.585938 72.195313 L 255.890625 71.960938 L 259.585938 71.960938 L 259.738281 72.128906 L 259.703125 72.332031 L 259.550781 72.671875 L 259.433594 72.777344 L 259.277344 72.914063 L 259.125 73.046875 L 258.800781 73.289063 L 258.683594 73.695313 L 258.734375 74.070313 L 259.585938 78.769531 L 262.515625 73.863281 L 262.664063 73.421875 L 262.429688 73.015625 L 262.242188 72.914063 L 262.121094 72.777344 L 262.070313 72.671875 L 262.105469 72.570313 L 262.34375 72.195313 L 262.53125 71.992188 L 264.8125 71.992188 L 265.085938 72.128906 L 265.050781 72.265625 L 264.863281 72.742188 L 264.558594 72.980469 L 264.300781 73.082031 L 263.328125 74.238281 L 260.335938 79.277344 L 259.894531 80.164063 L 259.722656 81.015625 L 259.363281 83.160156 L 259.328125 83.535156 L 259.398438 83.875 L 259.550781 84.046875 L 259.894531 84.179688 L 260.148438 84.25 L 260.335938 84.421875 L 260.300781 84.589844 L 260.078125 85 L 259.773438 85.167969 L 255.738281 85.167969 L 255.550781 85.035156 L 255.617188 84.792969 L 255.738281 84.523438 L 256.046875 84.214844 L 256.710938 83.910156 L 257.015625 83.160156 L 257.507813 79.890625 L 256.300781 74.171875 L 256.027344 73.320313 L 255.535156 72.945313 L 255.347656 72.742188 "/>
<path style=" stroke:none;fill-rule:nonzero;fill:rgb(68.998718%,68.998718%,68.998718%);fill-opacity:1;" d="M 277.511719 71.957031 L 284.132813 71.957031 L 284.492188 72.402344 L 284.457031 72.640625 L 284.253906 74 L 284.132813 74.171875 L 283.8125 74.480469 L 283.742188 74.511719 L 283.46875 74.070313 L 283.113281 73.285156 L 282.5 72.980469 L 280.578125 72.980469 L 279.726563 78.15625 L 283.0625 78.15625 L 283.25 78.292969 L 283.199219 78.425781 L 282.925781 79.109375 L 282.433594 79.347656 L 279.554688 79.347656 L 278.960938 83.125 L 278.90625 83.570313 L 278.960938 83.875 L 279.09375 84.011719 L 279.351563 84.113281 L 279.742188 84.25 L 279.914063 84.386719 L 279.859375 84.558594 L 279.640625 84.964844 L 279.367188 85.167969 L 275.316406 85.167969 L 275.113281 85.035156 L 275.179688 84.792969 L 275.300781 84.523438 L 275.621094 84.214844 L 276.269531 83.910156 L 276.558594 83.125 L 277.988281 74.136719 L 278.023438 73.796875 L 277.273438 72.980469 L 277.003906 72.777344 L 277.019531 72.640625 L 277.273438 72.195313 "/>
<path style=" stroke:none;fill-rule:nonzero;fill:rgb(68.998718%,68.998718%,68.998718%);fill-opacity:1;" d="M 288.816406 72.367188 L 286.621094 74.035156 L 285.105469 76.621094 L 284.558594 79.859375 L 285.34375 83.261719 L 287.25 84.964844 L 289.445313 85.40625 L 291.351563 84.964844 L 293.496094 83.570313 L 295.269531 80.980469 L 295.949219 77.097656 L 295.351563 74.238281 L 293.71875 72.402344 L 291.472656 71.753906 L 288.816406 72.367188 M 292.851563 73.933594 L 293.515625 76.621094 L 293.105469 79.890625 L 291.761719 82.992188 L 289.445313 84.285156 L 287.625 83.230469 L 286.996094 80.332031 L 287.472656 76.792969 L 288.851563 73.96875 L 290.945313 72.910156 "/>
<path style=" stroke:none;fill-rule:nonzero;fill:rgb(68.998718%,68.998718%,68.998718%);fill-opacity:1;" d="M 301.277344 72.367188 L 299.066406 74.035156 L 297.585938 76.621094 L 297.039063 79.859375 L 297.820313 83.261719 L 299.710938 84.964844 L 301.925781 85.40625 L 303.832031 84.964844 L 305.976563 83.570313 L 307.730469 80.980469 L 308.429688 77.097656 L 307.816406 74.238281 L 306.199219 72.402344 L 303.917969 71.753906 L 301.277344 72.367188 M 305.347656 73.933594 L 305.976563 76.621094 L 305.566406 79.890625 L 304.222656 82.992188 L 301.90625 84.285156 L 300.085938 83.230469 L 299.472656 80.332031 L 299.933594 76.792969 L 301.3125 73.96875 L 303.40625 72.910156 "/>
<path style=" stroke:none;fill-rule:nonzero;fill:rgb(68.998718%,68.998718%,68.998718%);fill-opacity:1;" d="M 309.773438 84.351563 L 310.027344 84.964844 L 313.109375 85.410156 L 316.582031 84.660156 L 319.015625 82.71875 L 320.394531 79.996094 L 320.855469 77.03125 L 320.601563 75.058594 L 319.816406 73.457031 L 318.386719 72.367188 L 316.257813 71.957031 L 310.878906 71.957031 L 310.625 72.199219 L 310.402344 72.671875 L 310.367188 72.777344 L 310.625 72.980469 L 311.375 73.796875 L 311.355469 74.136719 L 309.808594 83.941406 L 309.773438 84.351563 M 315.679688 72.914063 L 317.179688 73.355469 L 318.183594 74.714844 L 318.539063 77.03125 L 318.183594 79.996094 L 317.179688 82.34375 L 315.746094 83.839844 L 314.097656 84.316406 L 312.429688 82.855469 L 312.480469 82.34375 L 313.976563 72.914063 "/>
<path style=" stroke:none;fill-rule:nonzero;fill:rgb(68.998718%,68.998718%,68.998718%);fill-opacity:1;" d="M 329.757813 74.476563 L 330.046875 72.84375 L 329.519531 72.128906 L 327.359375 71.753906 L 325.128906 72.164063 L 323.75 73.289063 L 323.273438 74.886719 L 323.664063 76.519531 L 325.007813 78.53125 L 326.21875 80.402344 L 326.660156 82.070313 L 326.507813 82.992188 L 325.929688 83.839844 L 324.804688 84.179688 L 323.273438 83.09375 L 323.105469 82.617188 L 322.949219 82.070313 L 322.8125 81.558594 L 322.730469 81.390625 L 322.253906 81.59375 L 322.164063 81.699219 L 322.113281 81.902344 L 322.082031 82.136719 L 321.84375 84.25 L 321.996094 84.726563 L 322.628906 85.035156 L 324.925781 85.410156 L 326.933594 85.066406 L 328.277344 84.25 L 329.046875 83.09375 L 329.28125 81.867188 L 328.960938 80.199219 L 327.800781 78.085938 L 326.898438 76.828125 L 326.066406 75.464844 L 325.84375 74.308594 L 326.253906 73.21875 L 327.289063 72.742188 L 328.839844 74.101563 L 329.300781 75.058594 L 329.65625 74.683594 "/>
<g clip-path="url(#clip2)" clip-rule="nonzero">
<path style=" stroke:none;fill-rule:nonzero;fill:rgb(0%,30.999756%,61.999512%);fill-opacity:1;" d="M 307.132813 54.96875 L 307.660156 51.9375 C 295.472656 50.609375 303.984375 30.136719 303.984375 30.136719 C 308.597656 18.988281 316.15625 20.960938 316.15625 20.960938 L 309.5 55.34375 L 331.035156 52.550781 L 331.578125 49.511719 C 322.882813 50.140625 324.769531 44.761719 324.769531 44.761719 L 333.367188 1.0625 L 312.257813 3.734375 L 311.203125 7.171875 C 318.949219 6.339844 318.046875 10.953125 318.046875 10.953125 L 317.078125 15.992188 C 317.078125 15.992188 298.808594 13.878906 290.535156 29.847656 C 282.277344 45.800781 290.824219 52.3125 290.824219 52.3125 C 295.507813 56.945313 306.230469 55.242188 306.230469 55.242188 Z M 184.152344 62.9375 L 330.132813 62.9375 L 331.105469 58.714844 L 185.632813 58.714844 C 185.308594 61.03125 184.152344 62.9375 184.152344 62.9375 M 138.898438 58.714844 L 37.707031 58.714844 L 36.429688 62.9375 L 134.355469 62.9375 C 134.355469 62.9375 135.121094 60.246094 138.898438 58.714844 M 190.6875 20.636719 L 199.253906 20.636719 L 200.425781 16.007813 L 191.605469 16.007813 C 191.605469 16.007813 183.914063 16.296875 186.160156 10.066406 C 186.160156 10.066406 188.542969 6.644531 191.605469 9.574219 C 191.605469 9.574219 192.796875 10.441406 195.949219 13.710938 L 205.261719 5.453125 C 205.261719 5.453125 198.128906 -3.398438 188.882813 1.453125 C 184.898438 3.5625 178.804688 12.175781 178.804688 12.175781 C 178.804688 12.175781 176.78125 15.617188 171.519531 16.382813 L 170.410156 20.859375 L 177.613281 20.859375 C 174.855469 40.164063 173.101563 47.605469 173.101563 47.605469 C 173.171875 47.402344 170.191406 62.9375 168.183594 67.054688 C 168.183594 67.054688 164.929688 75.839844 158.921875 78.667969 C 155.5 80.300781 150.730469 79.789063 150.730469 79.789063 C 145.878906 79.789063 141.027344 75.363281 141.027344 71.277344 C 141.027344 67.804688 144.398438 62.902344 149.882813 62.902344 L 165.628906 62.902344 C 166.957031 58.578125 166.683594 58.714844 166.683594 58.714844 L 150.203125 58.714844 C 142.253906 58.714844 135.9375 63.921875 135.9375 70.835938 C 135.9375 77.542969 142.867188 84.214844 150.816406 84.214844 C 150.816406 84.214844 167.261719 86.871094 177.953125 66.886719 C 177.953125 66.886719 182.347656 61.132813 186.636719 41.390625 C 190.910156 21.625 190.6875 20.636719 190.6875 20.636719 M 265.679688 19.242188 C 265.679688 19.242188 259.570313 16.976563 256.078125 33.796875 C 252.519531 51.019531 258.886719 51.800781 258.886719 51.800781 C 258.886719 51.800781 265.953125 54.324219 269.171875 37.375 C 271.859375 23.277344 268.8125 19.449219 265.679688 19.242188 M 265.136719 14.628906 C 277.070313 14.679688 285.53125 24.113281 284.066406 35.6875 C 282.617188 47.246094 271.773438 56.601563 259.859375 56.535156 C 247.957031 56.464844 239.464844 47.042969 240.925781 35.46875 C 242.375 23.890625 253.21875 14.5625 265.136719 14.628906 M 218.710938 19.242188 C 218.710938 19.242188 212.597656 16.976563 209.109375 33.796875 C 205.550781 51.019531 211.917969 51.800781 211.917969 51.800781 C 211.917969 51.800781 219 54.324219 222.199219 37.375 C 224.871094 23.277344 221.859375 19.449219 218.710938 19.242188 M 218.183594 14.628906 C 230.097656 14.679688 238.578125 24.113281 237.113281 35.6875 C 235.664063 47.246094 224.804688 56.601563 212.886719 56.535156 C 200.988281 56.464844 192.492188 47.042969 193.941406 35.46875 C 195.402344 23.890625 206.246094 14.5625 218.183594 14.628906 M 150.460938 19.242188 C 150.460938 19.242188 144.347656 16.976563 140.859375 33.796875 C 137.300781 51.019531 143.667969 51.800781 143.667969 51.800781 C 143.667969 51.800781 150.75 54.324219 153.949219 37.375 C 156.640625 23.277344 153.609375 19.449219 150.460938 19.242188 M 149.933594 14.628906 C 161.832031 14.679688 170.328125 24.113281 168.878906 35.6875 C 167.414063 47.246094 156.570313 56.601563 144.636719 56.535156 C 132.738281 56.464844 124.242188 47.042969 125.707031 35.46875 C 127.152344 23.890625 137.996094 14.5625 149.933594 14.628906 M 100.1875 55.242188 C 100.1875 55.242188 89.480469 56.945313 84.796875 52.3125 C 84.796875 52.3125 76.25 45.800781 84.527344 29.847656 C 92.765625 13.878906 111.03125 15.992188 111.03125 15.992188 L 112.003906 10.953125 C 112.003906 10.953125 112.921875 6.339844 105.160156 7.171875 L 106.246094 3.734375 L 127.339844 1.0625 L 118.761719 44.761719 C 118.761719 44.761719 116.855469 50.140625 125.535156 49.511719 L 124.992188 52.550781 L 103.472656 55.34375 L 110.128906 20.960938 C 110.128906 20.960938 102.570313 18.988281 97.941406 30.136719 C 97.941406 30.136719 89.445313 50.609375 101.617188 51.9375 L 101.089844 54.96875 Z M 56.027344 20.996094 L 57.082031 15.820313 L 37.230469 18.410156 L 36.652344 21.625 C 36.652344 21.625 43.378906 19.941406 41.0625 28.894531 L 35.957031 55.003906 L 49.386719 55.003906 L 54.785156 27.636719 C 54.785156 27.636719 55.261719 23.71875 60.523438 23.585938 C 60.523438 23.585938 66.328125 23.667969 64.4375 31.703125 L 59.738281 55.070313 L 79.640625 52.617188 L 80.183594 49.460938 C 80.183594 49.460938 73.1875 50.746094 75.28125 44.441406 L 78.5 27.160156 C 78.5 27.160156 80.113281 17.285156 73.816406 15.738281 C 73.816406 15.738281 66.667969 12.738281 56.027344 20.996094 M 11.183594 51.019531 L 18.523438 13.503906 C 19.476563 7.054688 11.457031 7.972656 11.457031 7.972656 L 13.109375 3.699219 L 42.628906 3.699219 L 43.460938 8.042969 C 43.460938 8.042969 35.632813 6.695313 34.457031 12.671875 L 26.898438 52.074219 C 26.898438 52.074219 24.34375 59.15625 33.46875 58.851563 L 32.105469 62.902344 L 2.433594 62.902344 L 1.6875 58.714844 C 1.6875 58.714844 10.199219 60.246094 11.253906 50.542969 "/>
</g>
</g>
</svg>
