<svg width="575" height="694" viewBox="0 0 575 694" fill="none" xmlns="http://www.w3.org/2000/svg">
<path d="M101.919 367.983C64.6473 329.755 37.8937 280.977 29.0161 230.317C20.5588 182.056 29.9755 129.009 60.4817 88.5974C89.9973 49.5 140.149 24.324 188.628 12.1747C241.336 -1.0333 296.9 -0.83996 351.225 4.01337C381.224 6.69337 411.299 10.8134 439.755 20.08C480.677 33.4054 516.361 57.1547 532.791 95.6427C543.869 121.596 546.897 150.021 546.035 177.949C543.631 255.777 509.801 333.775 447.883 385.92C404.54 422.42 347.357 444.88 288.992 447.475C226.441 450.256 169.896 426.533 123.645 388.067C116.073 381.769 108.816 375.056 101.919 367.983" fill="#FDDFC7"/>
<path d="M284.085 503.688C133.008 503.688 10.5369 496.372 10.5369 487.345C10.5369 482.655 43.6265 478.425 96.6213 475.445V488.641H311.571C311.721 495.14 311.892 500.425 312.004 503.604C302.825 503.66 293.509 503.688 284.085 503.688ZM320.791 503.541L322.879 488.641H332.24L331.471 503.444C327.931 503.48 324.376 503.514 320.791 503.541ZM340.225 503.344C340.895 500.1 341.971 494.88 343.245 488.641H479.339V475.901C527.768 478.849 557.633 482.889 557.633 487.345C557.633 495.221 464.369 501.796 340.225 503.344" fill="#E3B88C"/>
<path d="M522.873 405.693C522.085 402.101 522.943 398.323 524.412 394.952C524.908 393.815 525.489 392.685 526.369 391.809C527.248 390.933 528.475 390.332 529.711 390.459C530.947 390.584 532.117 391.569 532.211 392.808C532.971 389.465 534.84 386.672 537.4 384.393C538.821 383.129 540.937 382.095 542.547 383.105C544.056 384.053 544.157 386.176 544.091 387.956C545.507 386.815 547.264 386.171 548.913 385.404C549.723 385.028 550.689 384.704 551.476 385.125C552.032 385.424 552.349 386.028 552.567 386.62C553.708 389.729 552.788 393.488 550.341 395.72C552.159 395.22 554.027 395.575 555.609 396.597C557.191 397.619 558.109 399.752 557.38 401.489C556.477 403.639 553.777 404.248 551.468 404.572C549.212 404.888 546.955 405.205 544.7 405.521C546.007 406.019 547.139 406.311 547.993 407.419C548.845 408.528 549.125 410.179 548.327 411.327C547.675 412.263 546.503 412.66 545.393 412.923C537.496 414.789 528.716 411.324 522.873 405.693" fill="#F1494D"/>
<path d="M511.173 379.817C506.711 380.352 502.248 380.887 497.787 381.424C493.097 381.987 487.763 382.359 484.252 379.199C480.437 375.765 480.595 369.759 481.743 364.756C479.356 364.089 476.885 364.243 474.429 364.397C471.611 364.573 468.809 364.751 466.171 363.688C461.495 361.803 458.972 356.213 459.743 351.229C460.513 346.247 464.045 341.997 468.343 339.36C463.252 340.808 457.552 338.617 453.891 334.793C450.229 330.971 448.455 325.617 448.205 320.331C448.023 316.467 448.621 312.508 450.395 309.071C452.165 305.632 455.184 302.759 458.875 301.597C452.076 297.135 449.223 287.921 451.932 280.253C454.641 272.585 462.944 267.305 471.036 268.104C467.401 264.363 465.483 259.791 464.827 254.615C464.169 249.44 465.617 243.928 469.132 240.073C472.648 236.22 478.283 234.261 483.328 235.583C480.428 231.584 480.24 226.805 481.532 222.037C483.544 214.612 489.617 208.425 497.005 206.279C504.392 204.132 512.837 206.099 518.515 211.289C521.903 207.811 526.303 205.484 531.152 205.209C536.439 204.909 541.797 207.536 544.8 211.899C547.803 216.261 548.341 222.205 546.175 227.037C550.799 225.844 556.672 229.58 559.789 233.2C562.907 236.82 564.245 241.712 564.34 246.488C564.436 251.263 563.385 255.984 562.204 260.611C568.673 263.405 572.984 270.291 574.271 277.219C575.556 284.147 573.181 291.649 568.145 296.577C572.069 302.752 575.128 309.467 573.276 316.544C571.423 323.623 564.533 329.595 557.271 328.717C560.577 332.989 562.313 338.097 563.081 343.444C563.491 346.292 563.485 349.3 562.289 351.916C560.821 355.135 557.639 357.392 554.195 358.201C550.751 359.008 547.088 358.48 543.789 357.199C547.309 362.251 545.856 369.799 541.404 374.052C536.953 378.305 529.353 378.719 524.467 374.975C523.323 379.776 515.649 381.897 511.173 379.817" fill="#F1494D"/>
<path d="M515.123 403.364C515.997 390.883 516.723 378.395 517.173 365.896C517.544 356.3 517.817 346.704 518.005 337.107C534.003 316.823 543.072 291.58 543.691 266.304C541.584 289.415 532.427 311.559 518.125 329.232C518.241 321.091 518.308 312.949 518.284 304.811C518.127 284.453 517.34 264.095 515.28 243.821C514.031 264.156 513.171 284.423 512.103 304.671C511.137 324.731 509.785 344.761 508.02 364.747C494.228 351.617 483.847 334.489 478.689 315.6C482.24 336.559 492.236 356.688 507.292 372.573C505.636 390.313 503.836 408.031 501.62 425.696C500.337 435.729 499.023 445.756 497.651 455.771L495.468 470.776L493.18 485.763L506.501 487.733L508.507 472.563L510.296 457.367L511.923 442.155L513.312 426.921C513.785 421.329 514.228 415.736 514.645 410.141C525.328 407.357 535.14 402.295 543.251 395.549C534.355 400.171 524.684 402.771 515.123 403.364" fill="#EB8056"/>
<path d="M68.1473 391.736C49.3677 382.864 29.7213 373.276 17.8631 356.225C15.3708 352.641 13.2339 348.668 12.6803 344.337C12.1276 340.008 13.3964 335.26 16.75 332.464C20.1031 329.669 25.6636 329.509 28.6079 332.732C18.4697 326.456 10.536 315.828 4.49999 305.545C2.29586 301.791 0.392661 297.72 0.0895939 293.377C-0.214006 289.033 1.34839 284.355 4.91306 281.853C8.47759 279.353 14.1109 279.824 16.5203 283.452C9.09013 269.379 7.30053 251.692 9.89319 235.992C10.4683 232.512 11.3521 228.977 13.4093 226.113C15.4683 223.249 18.9292 221.169 22.4281 221.616C25.9265 222.063 28.974 225.635 28.114 229.056C27.624 219.021 31.4073 209.529 36.7527 201.023C38.8849 197.629 41.4864 194.448 44.8417 192.257C48.1973 190.065 52.388 188.949 56.2912 189.857C62.6235 191.331 66.6536 197.511 69.1609 203.508C73.5568 214.021 75.3369 225.617 74.2969 236.965C74.8855 232.936 76.6203 229.579 78.9407 226.233C81.2604 222.887 85.7875 220.692 89.508 222.348C92.3667 223.621 93.944 226.7 94.9306 229.669C99.7333 244.125 95.5933 259.863 91.3853 274.503C95.196 271.417 100.259 267.897 104.977 269.236C109.565 270.537 111.877 275.624 112.947 280.272C115.661 292.084 114.073 304.836 108.544 315.621C112.309 313.095 117.609 314.665 120.687 317.996C123.763 321.327 124.703 326.205 124.179 330.708C123.655 335.212 121.833 339.451 119.971 343.585C114.832 354.996 109.115 366.353 100.729 375.645C92.3426 384.936 79.4636 397.083 68.1473 391.736" fill="#F1494D"/>
<path d="M88.5173 455.063C86.7573 445.107 85.0536 435.141 83.3812 425.164C80.4803 407.6 77.9917 389.965 75.6453 372.303C90.0707 355.844 99.276 335.341 102.009 314.26C97.5907 333.335 87.8853 350.855 74.614 364.511C72.0724 344.608 69.9417 324.647 68.1964 304.64C66.3421 284.448 64.6921 264.231 62.6527 243.96C61.3839 264.297 61.3891 284.671 62.0255 305.019C62.3177 313.153 62.7005 321.285 63.1328 329.416C48.1563 312.315 38.1427 290.543 35.138 267.531C36.7407 292.764 46.7864 317.635 63.5604 337.281C64.1213 346.863 64.7683 356.441 65.5115 366.015C67.0401 386.337 69.238 406.607 71.7448 426.844L73.7265 442.012L75.9443 457.149L78.3229 472.264L80.9193 487.345L94.152 484.857L91.2827 469.972L88.5173 455.063" fill="#EB8056"/>
<path d="M466.153 61.9827L464.255 80.1987L460.875 112.496H365.951V61.9827H466.153" fill="#244A8F"/>
<path d="M414.465 101.389V89.772L446.521 91.084V101.389H414.465Z" fill="#1B2A4C"/>
<path d="M399.855 84.708V73.0894L431.911 74.4027V83.3987L399.855 84.708Z" fill="#1B2A4C"/>
<path d="M464.255 80.1987L431.911 76.42V74.4027L405.308 73.3134L365.951 68.7147V61.9827H466.153L464.255 80.1987" fill="#233A6C"/>
<path d="M431.911 76.42L405.308 73.3134L431.911 74.4027V76.42Z" fill="#17213C"/>
<path d="M360.532 67.0533L359.428 43.508L474.352 51.9333L471.563 67.6173L360.532 67.0533" fill="#1B2A4C"/>
<path d="M288.944 80.04V77.1867L140.833 81.312V84.1653L288.944 80.04Z" fill="#244A8F"/>
<path d="M288.961 54.0894L288.927 51.2374L135.997 57.2401L136.029 60.0934L288.961 54.0894Z" fill="#244A8F"/>
<path d="M288.944 100.911V98.0587L127.324 102.56V105.413L165.253 104.356V117.633L168.12 117.553V104.276L194.832 103.533V116.809L197.699 116.731V103.453L288.944 100.911Z" fill="#244A8F"/>
<path d="M126.593 120.891L129.46 120.812V105.735L126.593 105.815V120.891Z" fill="#244A8F"/>
<path d="M240.527 115.537L243.393 115.457V102.561L240.527 102.641V115.537Z" fill="#244A8F"/>
<path d="M287.513 101.237L286.637 114.156L289.499 114.269L290.375 101.349L287.513 101.237" fill="#244A8F"/>
<path d="M148.213 86.9774C148.213 90.6014 147.581 93.748 146.32 96.4134C145.057 99.0814 143.329 101.299 141.137 103.065C138.944 104.833 136.379 106.161 133.443 107.049C130.507 107.939 127.349 108.429 123.976 108.523C122.673 108.559 121.245 108.427 119.689 108.127C118.136 107.827 116.56 107.44 114.965 106.969C113.371 106.497 111.836 105.985 110.361 105.431C108.885 104.877 107.577 104.352 106.435 103.853L108.188 88.2507C110.448 89.5373 112.952 90.4933 115.703 91.1173C118.453 91.7413 121.157 92.016 123.816 91.9414C124.32 91.928 124.932 91.8907 125.649 91.832C126.368 91.772 127.051 91.6333 127.703 91.4173C128.353 91.2013 128.904 90.888 129.357 90.4787C129.808 90.0694 130.035 89.4947 130.035 88.7534C130.035 88.252 129.875 87.8254 129.556 87.4774C129.237 87.128 128.824 86.8507 128.32 86.6387C127.815 86.428 127.244 86.272 126.607 86.1707C125.968 86.0694 125.344 86.0014 124.732 85.9654C124.121 85.9307 123.549 85.9187 123.017 85.9334C122.487 85.948 122.061 85.96 121.743 85.9694C119.456 86.0334 117.377 85.7334 115.504 85.072C113.631 84.4094 112.021 83.4427 110.68 82.1694C109.339 80.8987 108.295 79.34 107.551 77.496C106.807 75.652 106.435 73.5934 106.435 71.3174C106.435 68.196 107.065 65.3814 108.328 62.8734C109.589 60.3654 111.279 58.2147 113.391 56.4227C115.504 54.632 117.928 53.236 120.667 52.2334C123.403 51.232 126.235 50.6894 129.157 50.608C130.459 50.572 131.801 50.5814 133.184 50.6347C134.565 50.688 135.941 50.816 137.311 51.0147C138.679 51.2147 140.013 51.4827 141.316 51.816C142.619 52.1507 143.855 52.5787 145.024 53.1014L143.509 69.2534C141.701 68.6947 139.808 68.24 137.828 67.884C135.848 67.5294 133.915 67.3787 132.028 67.4307C131.681 67.44 131.236 67.46 130.692 67.488C130.147 67.516 129.576 67.572 128.979 67.6547C128.38 67.7374 127.776 67.8534 127.164 68.0014C126.553 68.1534 126.008 68.3467 125.529 68.584C125.052 68.8227 124.665 69.1294 124.373 69.5094C124.081 69.8867 123.948 70.3267 123.976 70.828C124.001 71.4107 124.221 71.8534 124.633 72.16C125.045 72.4654 125.576 72.6827 126.228 72.8094C126.879 72.9374 127.596 72.9894 128.38 72.968C129.164 72.9454 129.941 72.9054 130.712 72.844C131.483 72.7827 132.2 72.7227 132.865 72.664C133.529 72.6067 134.075 72.5854 134.5 72.6C136.625 72.672 138.539 73.0694 140.24 73.7894C141.94 74.508 143.383 75.4867 144.565 76.7227C145.748 77.96 146.651 79.4494 147.276 81.1907C147.9 82.9334 148.213 84.8614 148.213 86.9774" fill="#CF2257"/>
<path d="M206.248 104.089L186.316 105.597L186.157 88.8573L176.987 89.112L176.429 106.507L158.571 107.004L160.085 51.1747L179.06 51.5186L177.865 80.0413L186.715 79.7947L186.795 49.9547L204.972 49.9253L206.248 104.089" fill="#CF2257"/>
<path d="M249.773 77.0814C249.773 75.8601 249.607 74.6761 249.275 73.5347C248.943 72.3921 248.457 71.3814 247.819 70.5041C247.181 69.6267 246.391 68.924 245.448 68.3947C244.504 67.8667 243.421 67.62 242.199 67.6534C240.949 67.688 239.833 67.9627 238.849 68.4721C237.867 68.9841 237.023 69.668 236.319 70.5254C235.615 71.384 235.076 72.3801 234.704 73.5134C234.332 74.6467 234.147 75.84 234.147 77.0907C234.147 78.2854 234.307 79.4747 234.624 80.6587C234.944 81.8454 235.421 82.912 236.06 83.8614C236.697 84.8107 237.488 85.5707 238.431 86.1414C239.373 86.7121 240.471 86.9801 241.72 86.9454C242.969 86.9107 244.092 86.6174 245.089 86.0627C246.085 85.5094 246.928 84.7747 247.62 83.86C248.311 82.944 248.843 81.9 249.215 80.7227C249.588 79.5467 249.773 78.3334 249.773 77.0814V77.0814ZM267.473 75.4801C267.473 78.0681 267.193 80.5707 266.636 82.988C266.077 85.4067 265.273 87.6841 264.224 89.8161C263.175 91.9507 261.899 93.9107 260.397 95.7014C258.896 97.4907 257.208 99.0387 255.335 100.341C253.461 101.647 251.42 102.677 249.215 103.435C247.008 104.193 244.671 104.605 242.199 104.675C239.808 104.741 237.528 104.479 235.363 103.884C233.196 103.291 231.169 102.429 229.283 101.301C227.396 100.176 225.688 98.8001 224.16 97.1801C222.631 95.5587 221.329 93.7467 220.253 91.7441C219.176 89.7414 218.34 87.5827 217.741 85.2681C217.144 82.9534 216.844 80.5294 216.844 77.9987C216.844 75.5241 217.123 73.0934 217.681 70.7041C218.24 68.3147 219.043 66.052 220.093 63.92C221.143 61.7854 222.412 59.8174 223.9 58.0134C225.389 56.2094 227.056 54.6414 228.904 53.3094C230.751 51.9787 232.751 50.928 234.904 50.1574C237.057 49.3867 239.328 48.968 241.72 48.9014C245.573 48.7934 249.088 49.336 252.264 50.5267C255.44 51.7174 258.151 53.4694 260.397 55.7801C262.643 58.0934 264.383 60.916 265.619 64.2507C266.855 67.5854 267.473 71.3281 267.473 75.4801" fill="#CF2257"/>
<path d="M307.171 67.6307C307.171 65.912 306.645 64.584 305.596 63.648C304.545 62.712 303.184 62.2667 301.509 62.3134C300.952 62.328 300.373 62.392 299.776 62.5C299.176 62.6094 298.613 62.7387 298.081 62.884L297.604 74.4853C297.975 74.528 298.333 74.544 298.679 74.5347C299.024 74.524 299.383 74.5147 299.755 74.504C300.712 74.4774 301.635 74.2934 302.525 73.9494C303.416 73.608 304.207 73.1294 304.897 72.516C305.589 71.9014 306.14 71.1854 306.553 70.3667C306.964 69.548 307.171 68.6374 307.171 67.6307V67.6307ZM324.871 65.7893C324.871 68.3547 324.485 70.64 323.716 72.6454C322.944 74.652 321.887 76.4213 320.544 77.952C319.201 79.484 317.628 80.784 315.821 81.852C314.012 82.9213 312.079 83.8094 310.021 84.5134C307.96 85.22 305.828 85.756 303.621 86.1213C301.416 86.4867 299.251 86.712 297.124 86.7974V103.7L278.548 104.217C278.548 101.203 278.553 98.2667 278.567 95.408C278.58 92.552 278.593 89.7147 278.608 86.8974C278.62 84.0787 278.633 81.2413 278.647 78.3853C278.66 75.528 278.68 72.5774 278.707 69.536C278.759 66.3067 278.773 63.0787 278.747 59.852C278.72 56.6267 278.787 53.3707 278.947 50.0867C282.348 48.9867 285.749 48.1374 289.152 47.54C292.553 46.944 296.063 46.5934 299.676 46.4934C301.723 46.436 303.768 46.5453 305.816 46.8187C307.861 47.092 309.821 47.56 311.695 48.2213C313.568 48.8827 315.309 49.728 316.917 50.7547C318.524 51.7813 319.912 53.0187 321.083 54.468C322.253 55.916 323.176 57.584 323.853 59.468C324.531 61.3547 324.871 63.4627 324.871 65.7893" fill="#CF2257"/>
<path d="M492.187 114.679L490.419 137.589L487.736 172.325L480.091 271.4L477.879 299.932L463.969 480.135H112.623L99.5987 275.552L98.956 265.309L92.2947 160.643L91.1253 142.24L89.5987 118.36L492.187 114.679" fill="#244A8F"/>
<path d="M174.145 224.337L171.979 157.607L393.636 154.336L386.767 220.739L174.145 224.337" fill="#F8A27E"/>
<path d="M380.231 201.115L378.591 213.212L267.261 215.693H267.248L248.061 216.121H248.047L229.957 216.521L192.283 217.348H192.268L182.325 217.576V204.38L214.351 203.853L251.741 203.24H251.756L270.543 202.925L290.887 202.584H290.9L380.231 201.115" fill="#1B2A4C"/>
<path d="M383.827 160.557L380.231 195.051L302.655 196.079L281.741 196.364L262.597 196.607L225.379 197.105L182.325 197.676V165.779L280.743 163.224L318.975 162.24L340.9 161.669L365.951 161.013L383.827 160.557" fill="#1B2A4C"/>
<path d="M192.283 217.348L214.351 203.853L251.741 203.24L229.957 216.521L192.283 217.348Z" fill="#778AA8"/>
<path d="M225.379 197.105L276.088 166.073L310.996 167.104L262.597 196.607L225.379 197.105" fill="#778AA8"/>
<path d="M248.061 216.121L270.543 202.925L290.887 202.584L267.261 215.693H267.248L248.061 216.121" fill="#778AA8"/>
<path d="M281.741 196.364L330.644 167.684L352.731 168.337L302.655 196.079L281.741 196.364Z" fill="#778AA8"/>
<path d="M126.508 209.048V197.431L158.564 198.743V209.048H126.508Z" fill="#1B2A4C"/>
<path d="M111.897 192.367V180.748L143.953 182.061V191.057L111.897 192.367Z" fill="#1B2A4C"/>
<path d="M427.495 211.477V199.859L459.551 201.171V211.477H427.495" fill="#1B2A4C"/>
<path d="M459.551 166.703V178.32L427.495 177.008V166.703H459.551Z" fill="#1B2A4C"/>
<path d="M410.157 193.793V182.175L442.215 183.487V192.484L410.157 193.793" fill="#1B2A4C"/>
<path d="M359.428 305.772V294.708L390.044 296.795V305.364L359.428 305.772Z" fill="#1B2A4C"/>
<path d="M400.745 306.903V295.837L431.361 297.925V306.493L400.745 306.903" fill="#1B2A4C"/>
<path d="M413.004 280.175V291.24L382.387 289.153V280.584L413.004 280.175" fill="#1B2A4C"/>
<path d="M437.468 479.483L445.319 317.045L341.952 311.348L355.691 480.136L437.468 479.483" fill="#F8A27E"/>
<path d="M366.077 453.216L367.037 464.898L423.928 464.489L424.904 451.803L366.077 453.216ZM363.099 469.207L361.443 449.048L429.535 447.411L427.893 468.741L363.099 469.207Z" fill="#EB8056"/>
<path d="M434.853 355.609L434.712 357.964L433.741 373.499L432.772 389.207V389.22L429.404 443.287H361.144L360.031 423.187L356.293 355.609H434.853" fill="#1B2A4C"/>
<path d="M362.656 443.287H361.144L360.04 423.341C366.42 423.275 366.193 418.811 365.611 418.572C365.556 418.549 365.499 418.539 365.44 418.539C364.864 418.539 364.149 419.529 364.149 419.529C364.149 419.529 364.289 418.801 364.403 417.801L414.896 355.609H434.853L434.712 357.964L362.656 443.287" fill="#778AA8"/>
<path d="M381.259 443.287H372.215L433.741 373.499L432.772 389.207V389.22L381.259 443.287Z" fill="#778AA8"/>
<path d="M434.853 324.868L433.541 346.452H355.695L352.855 320.288L385.439 322.115L405.124 323.212L416.023 323.813L427.964 324.483L434.853 324.868" fill="#1B2A4C"/>
<path d="M385.496 346.452H365.667L385.439 322.115L405.124 323.212L385.496 346.452Z" fill="#778AA8"/>
<path d="M407.021 346.452H396.065L416.023 323.813L427.964 324.483L407.021 346.452" fill="#778AA8"/>
<path d="M141.088 448.716L142.163 460.397L205.82 459.989L206.913 447.301L141.088 448.716ZM137.753 464.707L135.903 440.537L212.099 438.897L210.257 464.24L137.753 464.707" fill="#1B2A4C"/>
<path d="M243.489 448.675L244.563 460.356L308.223 459.947L309.315 447.26L243.489 448.675M240.155 464.663L238.928 440.973L315.123 439.333L312.659 464.198L240.155 464.663" fill="#1B2A4C"/>
<path d="M129.113 428.628H325.815L313.177 316.591L131.108 324.349L129.113 428.628" fill="#F8A27E"/>
<path d="M314.496 419.905H138.815L138.929 405.953L139.5 331.515L236.463 329.047L265.893 328.305L284.352 327.835L303.025 327.364L303.325 329.775L314.496 419.905" fill="#1B2A4C"/>
<path d="M153.223 419.905H138.815L138.929 405.953L154.68 393.535C154.436 397.755 153.757 401.957 152.633 406.141C156.884 407.304 161.643 408.208 166.771 408.891L153.223 419.905M203.365 369.428C197.052 369.428 191.133 369.292 185.701 369.073L196.216 360.783C197.832 363.536 200.751 366.099 206.019 366.099C216.335 366.099 218.677 355.989 219.016 354.084L219.043 353.923V353.991C218.973 355.036 218.948 359.864 224.001 362.363L215.52 369.257C211.333 369.376 207.276 369.428 203.365 369.428" fill="#787F93"/>
<path d="M179.087 419.905H165.32L177.135 410.767C180.693 411.34 184.8 411.884 189.501 412.349L179.087 419.905ZM231.805 368.479L240.272 361.931C241.035 361.477 241.673 360.971 242.208 360.433L246.332 357.243C247.749 360.067 250.449 363.588 255.333 364.592L252.719 366.488C245.581 367.371 238.579 368.02 231.805 368.479ZM270.737 353.417C270.783 353.179 270.803 353.044 270.803 353.04C270.803 353.044 270.816 353.149 270.848 353.336L270.737 353.417Z" fill="#787F93"/>
<path d="M221.889 413.796C208.861 413.796 198.168 413.208 189.501 412.349L191.888 410.619C194.08 410.66 196.295 410.68 198.521 410.68C241.867 410.68 290.411 403.128 290.411 403.128C287.301 390.796 287.144 378.204 289.287 365.411L296.105 363.98C292.328 382.663 295.405 397.364 297.483 404.261L295.136 407.761L295.073 407.796C294.588 408.177 294.019 408.656 293.444 409.207C264.153 412.581 240.615 413.796 221.889 413.796M177.135 410.767C173.771 410.224 170.896 409.657 168.467 409.108C171.565 409.485 174.78 409.788 178.099 410.021L177.135 410.767" fill="#17213C"/>
<path d="M189.501 412.349C184.8 411.884 180.693 411.34 177.135 410.767L178.099 410.021C182.549 410.336 187.169 410.528 191.888 410.619L189.501 412.349" fill="#50607E"/>
<path d="M152.633 406.141C156.176 392.965 155.284 379.601 150.375 366.063C150.375 366.063 220.393 376.929 290.411 359.612C287.164 374.403 286.832 388.936 290.411 403.128C290.411 403.128 195.547 417.885 152.633 406.141Z" fill="#FDE3CE"/>
<path d="M381.859 572.104C380.229 596.984 374.328 618.191 364.157 635.725C353.985 653.259 340.745 666.427 324.435 675.23C308.126 684.033 289.912 687.776 269.793 686.458C249.674 685.14 232.104 679.053 217.082 668.198C202.061 657.342 190.652 642.559 182.855 623.848C175.057 605.137 171.974 583.341 173.604 558.461C175.233 533.581 181.134 512.374 191.306 494.84C201.478 477.306 214.718 464.137 231.027 455.334C247.337 446.532 265.551 442.789 285.67 444.107C305.789 445.425 323.359 451.512 338.38 462.367C353.402 473.223 364.811 488.006 372.608 506.717C380.405 525.428 383.489 547.224 381.859 572.104ZM354.215 570.293C355.553 549.867 353.265 532.403 347.351 517.903C341.514 503.408 333.035 492.171 321.912 484.193C310.866 476.22 298.202 471.766 283.919 470.83C269.636 469.895 256.46 472.656 244.392 479.115C232.401 485.578 222.528 495.613 214.773 509.218C207.094 522.828 202.586 539.846 201.248 560.272C199.91 580.698 202.159 598.159 207.996 612.654C213.91 627.155 222.39 638.391 233.435 646.364C244.558 654.342 257.261 658.799 271.544 659.735C285.827 660.67 298.964 657.906 310.955 651.443C323.024 644.984 332.897 634.95 340.575 621.34C348.33 607.735 352.876 590.719 354.215 570.293Z" fill="#CF2257"/>
<path d="M227.725 677.194L224.965 440.804L304.839 439.872C323.384 439.655 338.582 442.826 350.433 449.383C362.361 455.862 371.238 464.724 377.064 475.969C382.891 487.215 385.885 499.801 386.048 513.729C386.21 527.657 383.511 540.348 377.95 551.803C372.465 563.258 363.876 572.439 352.182 579.348C340.487 586.18 325.444 589.704 307.053 589.919L249.802 590.587L249.505 565.194L305.833 564.536C318.529 564.388 328.7 562.076 336.343 557.6C343.987 553.124 349.497 547.133 352.872 539.629C356.324 532.046 357.995 523.523 357.884 514.058C357.774 504.593 355.905 496.149 352.278 488.726C348.728 481.303 343.043 475.52 335.221 471.379C327.399 467.16 317.063 465.126 304.212 465.276L253.887 465.864L256.35 676.86L227.725 677.194Z" fill="#CF2257"/>
<path d="M272.392 674.449L256.366 438.587L398.712 428.915L400.434 454.252L286.649 461.983L292.064 541.679L398.478 534.448L400.2 559.785L293.786 567.016L299.232 647.172L414.86 639.315L416.581 664.652L272.392 674.449Z" fill="#CF2257"/>
<path d="M468.586 411.928L497.881 646.512L470.39 649.945L319.56 481.723L317.269 482.009L340.27 666.194L311.863 669.742L282.568 435.158L310.059 431.725L461.405 600.347L463.696 600.061L440.637 415.418L468.586 411.928Z" fill="#CF2257"/>
<path d="M152.307 367.467L218.039 334.541C218.36 334.381 218.721 334.377 219.031 334.497L287.515 361.484C287.895 361.633 288.081 362.061 287.931 362.441C287.784 362.819 287.36 363.004 286.983 362.863L218.14 336.804L219.132 336.76L152.959 368.792C152.592 368.971 152.149 368.817 151.972 368.449C151.796 368.085 151.947 367.648 152.307 367.467" fill="#F8A27E"/>
<path d="M130.064 366.099C117.228 366.099 120.125 355.209 120.125 355.209L122.591 350.503C126.229 350.148 128.827 348.7 130.677 346.865L130.309 366.097C130.228 366.099 130.145 366.099 130.064 366.099M319.068 359.005C318.604 358.632 318.195 358.243 317.832 357.848L315.479 336.985C315.768 335.387 315.793 334.115 315.793 333.711V333.583C315.793 333.583 316.369 339.481 321.535 343.051C321.031 344.005 320.844 345.116 321.036 346.141C321.285 347.459 322.156 348.637 323.345 349.225C322.172 350.6 321.668 352.504 322.027 354.2C322.157 354.809 322.403 355.4 322.783 355.877C322.404 356.123 322.076 356.371 321.84 356.619C321.84 356.619 320.693 357.413 319.068 359.005" fill="#233A6C"/>
<path d="M130.309 366.097L130.677 346.865C134.795 342.785 135.224 336.788 135.233 336.637C135.237 336.796 135.38 343.545 139.376 347.596L139.256 363.233C137.272 364.843 134.416 366.052 130.309 366.097ZM307.411 362.741L305.416 346.648C312.541 346.599 314.779 340.843 315.479 336.985L317.832 357.848C315.429 355.236 315.103 352.405 315.103 352.405V352.509C315.103 353.531 314.865 361.42 307.411 362.741Z" fill="#B87C6A"/>
<path d="M180.524 366.099C174.809 366.099 171.629 363.399 169.871 360.605L194.447 348.709C196.093 349.852 198.189 350.587 200.856 350.587C208.765 350.587 212.227 343.94 213.663 339.407L214.844 338.835C215.183 340.463 215.909 342.397 217.433 344.052L196.216 360.783C194.887 358.517 194.44 356.124 194.293 354.923L194.225 354.141C194.225 354.147 192.355 366.099 180.524 366.099M154.895 366.099C143.955 366.099 143.739 354.923 143.739 354.867H143.737C143.735 354.904 143.347 359.917 139.256 363.233L139.376 347.596C141.099 349.341 143.537 350.587 146.989 350.587C158.488 350.587 160.488 336.383 160.512 336.209C160.525 336.383 161.601 350.587 173.993 350.587C186.461 350.587 188.431 335.736 188.431 335.736L188.501 336.707C188.719 338.805 189.561 343.827 192.731 347.219L169.043 359.084C167.912 356.663 167.732 354.541 167.731 354.521H167.729C167.725 354.548 167.157 358.053 164.82 361.199L155.037 366.099C154.991 366.099 154.943 366.099 154.895 366.099ZM258.171 364.871C257.152 364.871 256.207 364.771 255.333 364.592L267.751 355.583L269.863 356.383C268.497 359.88 265.301 364.871 258.171 364.871M231.756 363.871C228.34 363.871 225.836 363.271 224.001 362.363L243.589 346.437L254.812 350.685L246.332 357.243C245.887 356.356 245.568 355.537 245.349 354.887V354.864C245.037 353.98 244.929 353.417 244.929 353.417C244.929 353.417 245.243 357.387 242.208 360.433L240.272 361.931C238.339 363.079 235.609 363.871 231.756 363.871M305.165 362.929C295.525 362.929 294.131 353.945 293.996 352.82L293.983 352.707H293.981C293.98 352.729 293.596 357.785 290.101 361.067C290.201 360.583 290.304 360.097 290.411 359.612C288.821 360.005 287.236 360.383 285.647 360.748L271.267 355.081C271.031 354.304 270.905 353.681 270.848 353.336L278.925 347.476C279.731 347.652 280.601 347.748 281.541 347.748C289.105 347.748 291.929 341.376 292.963 337.293L293.997 336.541C294.923 340.255 297.632 346.649 305.323 346.649C305.355 346.649 305.385 346.649 305.416 346.648L307.411 362.741C306.725 362.863 305.977 362.929 305.165 362.929ZM277.092 362.58C274.549 361.276 273.015 359.145 272.099 357.228L282.979 361.347C281.016 361.779 279.051 362.189 277.092 362.58ZM270.415 354.745L269.436 354.36L270.737 353.417C270.679 353.715 270.577 354.177 270.415 354.745ZM256.6 349.301L255.984 349.059C256.324 349.055 256.656 349.037 256.979 349.008L256.6 349.301ZM247.341 345.653L245.464 344.913L246.149 344.356C246.517 344.805 246.913 345.241 247.341 345.653ZM267.043 341.224C268.693 337.775 269.104 334.471 269.116 334.369H269.117C269.125 334.447 269.329 336.4 270.185 338.793L267.043 341.224M214.435 336.348C214.487 336.071 214.524 335.84 214.551 335.664L214.579 335.465L214.593 335.436L214.579 335.551C214.569 335.72 214.56 335.969 214.564 336.283L214.435 336.348" fill="#17213C"/>
<path d="M206.019 366.099C200.751 366.099 197.832 363.536 196.216 360.783L217.433 344.052C219.373 346.161 222.607 347.82 227.975 347.82C232.943 347.82 236.139 346.347 238.192 344.395L243.589 346.437L224.001 362.363C218.948 359.864 218.973 355.036 219.043 353.991V353.923L219.016 354.084C218.677 355.989 216.335 366.099 206.019 366.099M245.464 344.913L239.681 342.635C242.135 339.019 241.855 334.837 241.855 334.837C241.855 334.837 241.969 335.537 242.297 336.635V336.663C242.851 338.596 244 341.725 246.149 344.356L245.464 344.913" fill="#50607E"/>
<path d="M255.333 364.592C250.449 363.588 247.749 360.067 246.332 357.243L254.812 350.685L267.751 355.583L255.333 364.592M240.272 361.931L242.208 360.433C241.673 360.971 241.035 361.477 240.272 361.931ZM269.436 354.36L256.6 349.301L256.979 349.008C262.289 348.527 265.332 344.799 267.043 341.224L270.185 338.793C271.389 342.153 273.881 346.377 278.925 347.476L270.848 353.336C270.816 353.149 270.803 353.044 270.803 353.04C270.803 353.044 270.783 353.179 270.737 353.417L269.436 354.36M292.963 337.293C293.441 335.403 293.535 334.004 293.539 333.955L293.553 334.096C293.588 334.435 293.701 335.351 293.997 336.541L292.963 337.293Z" fill="#50607E"/>
<path d="M282.595 363.813C280.373 363.813 278.564 363.335 277.092 362.58C279.051 362.189 281.016 361.779 282.979 361.347L286.983 362.863C287.068 362.895 287.156 362.909 287.243 362.909C287.263 362.909 287.283 362.909 287.301 362.908C286 363.471 284.447 363.813 282.595 363.813M287.769 362.691C287.837 362.621 287.893 362.537 287.931 362.441C288.081 362.061 287.895 361.633 287.515 361.484L285.647 360.748C287.236 360.383 288.821 360.005 290.411 359.612C290.304 360.097 290.201 360.583 290.101 361.067C289.441 361.687 288.669 362.243 287.769 362.691" fill="#A8A8AD"/>
<path d="M155.037 366.099L164.82 361.199C162.929 363.744 159.881 366.055 155.037 366.099M287.243 362.909C287.156 362.909 287.068 362.895 286.983 362.863L282.979 361.347L272.099 357.228C271.729 356.455 271.46 355.717 271.267 355.081L285.647 360.748L287.515 361.484C287.895 361.633 288.081 362.061 287.931 362.441C287.893 362.537 287.837 362.621 287.769 362.691C287.617 362.767 287.461 362.839 287.301 362.908C287.283 362.909 287.263 362.909 287.243 362.909M169.871 360.605C169.549 360.096 169.276 359.584 169.043 359.084L192.731 347.219C193.24 347.764 193.811 348.267 194.447 348.709L169.871 360.605ZM269.863 356.383L267.751 355.583L254.812 350.685L243.589 346.437L238.192 344.395C238.776 343.839 239.268 343.245 239.681 342.635L245.464 344.913L247.341 345.653C249.381 347.619 252.131 349.06 255.807 349.06C255.867 349.06 255.925 349.06 255.984 349.059L256.6 349.301L269.436 354.36L270.415 354.745C270.277 355.225 270.097 355.781 269.863 356.383M213.663 339.407C214.055 338.171 214.295 337.092 214.435 336.348L214.564 336.283C214.572 336.919 214.632 337.817 214.844 338.835L213.663 339.407Z" fill="#B87C6A"/>
<path d="M331.172 345.708C316.977 345.708 315.793 333.583 315.793 333.583V333.711C315.793 335.095 315.495 346.649 305.323 346.649C295.165 346.649 293.696 335.493 293.553 334.096L293.539 333.953C293.539 333.953 292.669 347.748 281.541 347.748C270.429 347.748 269.117 334.367 269.117 334.367C269.117 334.367 267.376 349.06 255.807 349.06C246.848 349.06 243.396 340.5 242.297 336.663V336.635C241.969 335.537 241.855 334.837 241.855 334.837C241.855 334.837 242.725 347.82 227.975 347.82C214.465 347.82 214.479 337.32 214.579 335.551L214.593 335.436L214.579 335.465L214.551 335.664C214.195 338.033 211.727 350.587 200.856 350.587C190.741 350.587 188.844 340.016 188.501 336.707L188.431 335.736C188.431 335.736 186.461 350.587 173.993 350.587C161.525 350.587 160.512 336.208 160.512 336.208C160.512 336.208 158.559 350.587 146.989 350.587C135.433 350.587 135.233 336.635 135.233 336.635C135.233 336.635 134.349 350.587 120.825 350.587C107.303 350.587 110.355 337.063 110.355 337.063L126.275 329.431L137.873 329.017L162.881 328.104L189.557 327.133L215.121 326.207L240.671 325.279L266.235 324.352L276.535 323.981L290.216 325.892L313.811 329.203L341.956 333.14C341.956 333.14 345.365 345.708 331.172 345.708" fill="#CF2257"/>
<path d="M131.108 290.353L313.177 282.593L341.952 333.135L110.36 337.059L131.108 290.353Z" fill="#CF2257"/>
<path d="M241.855 334.837C241.855 334.837 242.725 347.82 227.975 347.82C214.465 347.82 214.48 337.32 214.579 335.551V335.465L214.593 335.436L214.608 335.293L215.121 326.207L217.347 286.676L235.021 285.921V285.935L240.671 325.279L242.04 334.837L242.297 336.635C241.969 335.537 241.855 334.837 241.855 334.837" fill="#FDE3CE"/>
<path d="M194.764 287.632V287.647L189.557 327.133L188.431 335.736C188.431 335.736 186.461 350.587 173.993 350.587C161.525 350.587 160.512 336.208 160.512 336.208L162.881 328.104L174.464 288.503L194.764 287.632" fill="#FDE3CE"/>
<path d="M151.583 289.488L137.873 329.017L135.233 336.635C135.233 336.635 134.349 350.587 120.825 350.587C107.303 350.587 110.355 337.063 110.355 337.063L131.112 290.357L151.583 289.488" fill="#FDE3CE"/>
<path d="M293.539 333.953C293.539 333.953 292.669 347.748 281.541 347.748C270.429 347.748 269.117 334.367 269.117 334.367L266.235 324.352L254.951 285.079L273.039 284.309L290.216 325.892L293.539 333.953Z" fill="#FDE3CE"/>
<path d="M331.172 345.708C316.977 345.708 315.793 333.583 315.793 333.583L313.811 329.203L293.125 283.452L313.183 282.597L341.956 333.14C341.956 333.14 345.365 345.708 331.172 345.708Z" fill="#FDE3CE"/>
<path d="M477.879 299.932L317.155 289.573L313.183 282.597H313.18L313.177 282.593L250.377 285.269L99.5987 275.552L98.956 265.309L480.091 271.4L477.879 299.932M413.004 280.175L382.387 280.584V289.153L413.004 291.24V280.175" fill="#233A6C"/>
<path d="M413.004 291.24L382.387 289.153V280.584L413.004 280.175V291.24" fill="#17213C"/>
<path d="M295.255 288.161L274.067 286.796L273.039 284.309L254.951 285.079L255.093 285.573L250.377 285.269L313.177 282.593L313.18 282.597L293.125 283.452L295.255 288.161" fill="#881643"/>
<path d="M274.067 286.796L255.093 285.573L254.951 285.079L273.039 284.309L274.067 286.796" fill="#A8A8AD"/>
<path d="M317.155 289.573L295.255 288.161L293.125 283.452L313.18 282.597H313.183L317.155 289.573Z" fill="#A8A8AD"/>
<path d="M87.7893 271.44L490.46 275.367V264.899L85.4989 255.085L87.7893 271.44" fill="#1B2A4C"/>
<path d="M83.3188 246.58L81.574 234.368H490.46V257.703L83.3188 246.58" fill="#1B2A4C"/>
<path d="M487.736 172.325L459.551 171.493V166.703H427.495V170.547L392.068 169.499L393.636 154.336L171.979 157.607L172.153 163.001L92.2947 160.643L91.1253 142.24L490.419 137.589L487.736 172.325" fill="#233A6C"/>
<path d="M392.068 169.499L382.923 169.229L383.827 160.557L365.951 161.013L340.9 161.669L318.975 162.24L280.743 163.224L226.94 164.62L172.153 163.001L171.979 157.607L393.636 154.336L392.068 169.499" fill="#B87C6A"/>
<path d="M382.923 169.229L352.731 168.337L365.951 161.013L340.9 161.669L330.644 167.684L310.996 167.104L318.975 162.24L280.743 163.224L276.088 166.073L226.94 164.62L280.743 163.224L318.975 162.24L340.9 161.669L365.951 161.013L383.827 160.557L382.923 169.229" fill="#17213C"/>
<path d="M310.996 167.104L276.088 166.073L280.743 163.224L318.975 162.24L310.996 167.104" fill="#516992"/>
<path d="M352.731 168.337L330.644 167.684L340.9 161.669L365.951 161.013L352.731 168.337" fill="#516992"/>
<path d="M459.551 171.493L427.495 170.547V166.703H459.551V171.493Z" fill="#17213C"/>
<path d="M498.095 105.188L71.2317 113.7L71.5375 124.163L500.997 121.467L498.095 105.188" fill="#1B2A4C"/>
<path d="M498.619 130.044L500.801 142.197L72.4265 154.681L71.7469 131.356L498.619 130.044" fill="#1B2A4C"/>
<path d="M479.339 488.641H96.6213V470.324L479.339 473.595V488.641Z" fill="#1B2A4C"/>
<path d="M350.897 513.505H330.709L331.288 506.957H331.287L331.471 503.444C334.403 503.414 337.325 503.38 340.225 503.344C339.756 505.616 339.485 506.917 339.485 506.917H339.476C339.391 507.175 339.012 508.927 344.665 508.927C351.447 508.927 350.897 513.505 350.897 513.505" fill="#A4B9D2"/>
<path d="M331.471 503.444L332.24 488.641H343.245C341.971 494.88 340.895 500.1 340.225 503.344C337.325 503.38 334.403 503.414 331.471 503.444Z" fill="#938678"/>
<path d="M319.735 513.505H299.547C299.547 513.505 299.809 508.927 306.589 508.927C312.692 508.927 312.127 506.881 312.127 506.881C312.127 506.881 312.079 505.703 312.004 503.604C314.951 503.585 317.873 503.565 320.791 503.541L320.317 506.924L319.735 513.505Z" fill="#A4B9D2"/>
<path d="M312.004 503.604C311.892 500.425 311.721 495.14 311.571 488.641H322.879L320.791 503.541C317.873 503.565 314.951 503.585 312.004 503.604Z" fill="#938678"/>
<path d="M346.529 472.459L333.088 472.344L335.699 422.187L332.024 423.367L325.172 472.276L311.299 472.159C311.275 469.556 311.259 466.893 311.255 464.207L312.659 464.198L315.123 439.333L311.655 439.408C311.803 435.6 312 431.968 312.255 428.628H325.815L318.076 360.019C318.421 359.651 318.753 359.313 319.068 359.005C321.236 360.757 324.575 362.169 329.699 362.169C343.171 362.169 339.933 352.049 339.933 352.049L335.373 345.255C341.244 343.827 342.316 339.34 342.316 336.247C342.315 334.461 341.956 333.14 341.956 333.14L332.449 316.44C333.487 315.417 334.884 314.547 336.263 314.156C336.819 313.997 337.396 313.915 337.967 313.915C338.831 313.915 339.679 314.104 340.413 314.512C341.044 314.861 341.775 315.403 342.335 316.04L352.564 441.727C350.92 450.471 348.685 461.749 346.529 472.459" fill="#233A6C"/>
<path d="M352.564 441.727L342.335 316.04C342.86 316.639 343.235 317.321 343.237 318.012C343.729 317.723 344.291 317.583 344.845 317.583C345.657 317.583 346.455 317.883 346.999 318.457C347.911 319.423 348.015 321.067 347.235 322.236C347.541 322.112 347.864 322.056 348.188 322.056C349.276 322.056 350.393 322.688 351.039 323.521C351.875 324.604 351.872 326.28 351.031 327.457C352.559 327.787 353.557 329.275 353.736 330.832C353.916 332.388 353.059 334.075 351.665 334.907C353.109 335.427 353.887 337.008 353.945 338.563C354.005 340.116 353.089 341.724 351.695 342.516C353.089 342.872 353.945 344.379 353.828 345.835L352.731 354.191C353.611 354.556 354.344 354.98 354.808 355.471C354.808 355.471 355.423 355.897 356.359 356.785L358.155 389.264L355.635 382.444C355.372 385.824 354.992 388.767 354.487 390.681C352.879 396.769 354.995 405.56 356.065 409.324L358.259 391.145L360.031 423.187L360.04 423.341C359.991 423.341 359.943 423.343 359.893 423.343C359.823 423.343 359.749 423.341 359.676 423.34C357.615 423.311 356.321 422.651 355.541 421.665C355.431 423.948 355.172 426.632 354.676 429.824C354.245 432.588 353.501 436.747 352.564 441.727M355.797 411.545C355.457 411.708 355.116 411.871 354.78 412.024C354.928 412.515 355.073 413.121 355.204 413.861C355.248 413.715 355.291 413.567 355.335 413.433C355.405 413.208 355.515 412.997 355.645 412.807L355.797 411.545" fill="#B87C6A"/>
<path d="M360.031 423.187L358.259 391.145L358.404 389.939L358.155 389.264L356.359 356.785C358.433 358.753 362.088 362.985 364.145 369.856L362.504 370.452C362.527 370.531 366.779 384.877 367.135 389.305C367.424 392.907 364.26 406.872 363.055 412.016C363.305 412.109 363.531 412.216 363.695 412.353C364.723 413.209 364.609 415.965 364.403 417.801L360.031 423.187" fill="#17213C"/>
<path d="M360.04 423.341L360.031 423.187L364.403 417.801C364.289 418.801 364.149 419.529 364.149 419.529C364.149 419.529 364.864 418.539 365.44 418.539C365.499 418.539 365.556 418.549 365.611 418.572C366.193 418.811 366.42 423.275 360.04 423.341" fill="#516992"/>
<path d="M311.255 464.207C311.244 455.852 311.347 447.255 311.655 439.408L315.123 439.333L312.659 464.198L311.255 464.207Z" fill="#17213C"/>
<path d="M325.815 428.628H312.255C312.5 425.417 312.799 422.475 313.16 419.905H314.496L313.94 415.421C314.211 414.175 314.508 413.089 314.832 412.189C314.068 411.783 313.659 411.517 313.659 411.517C317.16 404.844 317.277 397.54 316.885 392.089C316.333 393.753 314.363 396.512 311.963 399.469L309.849 382.419L312.732 372.589L310.713 371.707C312.755 366.42 315.72 362.525 318.076 360.019L325.815 428.628M296.408 420.603C295.684 420.603 294.847 420.408 293.901 419.905H298.569C298.033 420.299 297.309 420.603 296.408 420.603Z" fill="#B87C6A"/>
<path d="M314.496 419.905H313.16C313.393 418.247 313.652 416.743 313.94 415.421L314.496 419.905ZM298.569 419.905H293.901C293.397 419.637 292.861 419.281 292.295 418.823C288.247 415.533 290.897 411.651 293.444 409.207C295.269 408.997 297.123 408.777 298.993 408.549C298.993 408.549 298.319 407.037 297.483 404.261L308.073 388.472L309.849 382.419L311.963 399.469C308.392 403.868 303.871 408.707 301.66 411.031C301.825 411.295 301.956 411.555 302.004 411.801C302.388 413.867 297.972 418.201 297.972 418.201C297.972 418.201 298.555 417.984 299.044 417.984C299.309 417.984 299.548 418.048 299.652 418.244C299.773 418.473 299.399 419.296 298.569 419.905" fill="#17213C"/>
<path d="M293.444 409.207C294.019 408.656 294.588 408.177 295.073 407.796L295.136 407.761L297.483 404.261C298.319 407.037 298.993 408.549 298.993 408.549C297.123 408.777 295.269 408.997 293.444 409.207" fill="#12192E"/>
<path d="M329.699 362.169C324.575 362.169 321.236 360.757 319.068 359.005C320.693 357.413 321.84 356.619 321.84 356.619C322.076 356.371 322.404 356.123 322.783 355.877C322.403 355.4 322.157 354.809 322.027 354.2C321.668 352.504 322.172 350.6 323.345 349.225C322.156 348.637 321.285 347.459 321.036 346.141C320.844 345.116 321.031 344.005 321.535 343.051C323.775 344.599 326.877 345.708 331.172 345.708C332.791 345.708 334.181 345.544 335.373 345.255L339.933 352.049C339.933 352.049 343.171 362.169 329.699 362.169" fill="#1E2C53"/>
<path d="M331.172 345.708C326.877 345.708 323.775 344.599 321.535 343.051C321.679 342.779 321.848 342.519 322.043 342.276C320.969 341.416 320.265 340.011 320.136 338.613C320.008 337.216 320.448 335.743 321.335 334.591C320.059 334.075 319.237 332.692 319.116 331.304C318.993 329.915 319.669 328.436 320.823 327.567C319.888 326.356 319.98 324.571 320.813 323.187C321.571 321.927 323.036 321.109 324.465 321.109C324.607 321.109 324.747 321.117 324.887 321.133C324.963 319.436 326.025 317.724 327.509 316.804C328.353 316.281 329.336 316.016 330.301 316.016C331.036 316.016 331.761 316.169 332.407 316.483C332.421 316.468 332.436 316.455 332.449 316.44L341.956 333.14C341.956 333.14 342.315 334.461 342.316 336.247C342.316 339.34 341.244 343.827 335.373 345.255C334.181 345.544 332.791 345.708 331.172 345.708" fill="#A8A8AD"/>
<path d="M343.245 488.641H332.24L333.088 472.344L346.529 472.459C345.379 478.172 344.251 483.722 343.245 488.641ZM322.879 488.641H311.571C311.456 483.712 311.355 478.086 311.299 472.159L325.172 472.276L322.879 488.641" fill="#17213C"/>
<path d="M327.403 421.012L323.835 422.208L319.521 506.839L311.328 506.797C311.328 506.797 300.405 421.483 306.216 409.269L344.62 408.855C344.62 408.855 348.113 412.76 347.056 428.748C345.999 444.736 338.688 506.832 338.688 506.832L330.495 506.875L327.403 421.012" fill="#191B22"/>
<path d="M330.496 506.839V513.505H350.683C350.683 513.505 350.827 508.867 344.047 508.867C337.944 508.867 338.688 506.797 338.688 506.797L330.496 506.839Z" fill="#F1494D"/>
<path d="M319.521 506.839V513.505H299.333C299.333 513.505 299.189 508.867 305.971 508.867C312.073 508.867 311.328 506.797 311.328 506.797L319.521 506.839Z" fill="#F1494D"/>
<path d="M325.724 315.497C326.872 314.775 328.524 314.972 329.523 315.949C330.523 316.928 330.771 318.593 330.095 319.777C331.38 319.229 333.08 319.983 334.012 321.079C334.945 322.175 335.089 323.873 334.352 325.065C335.909 325.399 337.04 326.907 337.357 328.484C337.676 330.06 336.967 331.768 335.647 332.611C337.136 333.136 338.053 334.74 338.249 336.313C338.447 337.887 337.675 339.515 336.349 340.317C337.776 340.677 338.764 342.204 338.776 343.68C338.787 345.156 337.693 346.535 336.272 346.835C338.304 348.301 339.079 351.377 338.007 353.584C336.932 355.792 334.135 356.936 331.784 356.127C331.509 357.147 330.631 357.989 329.68 358.419C328.729 358.848 327.66 358.963 326.608 358.988C325.847 359.007 325.06 358.976 324.363 358.649C323.665 358.321 323.077 357.627 323.085 356.857C322.876 357.485 322.191 357.813 321.587 358.068C320.983 358.323 320.317 358.399 319.661 358.464C318.429 358.587 317.137 358.671 315.979 358.188C314.819 357.705 313.847 356.476 314.068 355.248C312.475 355.463 310.413 355.316 309.109 354.317C308.417 353.787 307.964 352.987 307.716 352.152C307.205 350.435 307.543 348.507 308.595 347.113C307.351 346.517 306.377 345.324 306.011 343.991C305.647 342.655 305.897 341.179 306.676 340.075C305.527 339.204 304.697 337.78 304.447 336.365C304.193 334.949 304.503 333.457 305.287 332.291C303.965 331.768 303.024 330.368 302.779 328.961C302.533 327.555 303.077 326.057 304.155 325.176C303.112 323.949 303.047 322.141 303.757 320.74C304.467 319.337 306.077 318.477 307.649 318.659C307.575 316.939 308.487 315.208 309.889 314.275C311.292 313.344 313.197 313.216 314.757 313.949C315.707 312.895 317.045 311.993 318.408 311.592C319.772 311.189 321.309 311.268 322.591 311.953C323.871 312.639 325.591 314.053 325.724 315.497" fill="#0E121E"/>
<path d="M317.995 350.183C317.68 347.456 316.387 344.853 314.403 342.957C312.623 341.257 310.3 340.091 308.927 338.047C308.076 336.781 307.661 335.268 307.431 333.76C306.908 330.332 307.288 326.772 308.523 323.533C320.723 321.161 330.152 321.585 330.569 331.104C328.795 333.829 327.855 337.031 327.412 340.252C326.971 343.475 327.004 346.74 327.039 349.991C327.039 349.991 335.36 352.341 335.36 359.908C335.36 367.473 311.74 367.899 311.74 360.692C311.74 353.484 317.995 350.183 317.995 350.183" fill="#9F5C47"/>
<path d="M315.041 330.329C315.041 330.983 315.356 331.509 315.744 331.509C316.132 331.509 316.448 330.983 316.448 330.329C316.448 329.679 316.132 329.151 315.744 329.151C315.356 329.151 315.041 329.679 315.041 330.329Z" fill="#0E121E"/>
<path d="M315.675 329.983C315.675 330.192 315.775 330.361 315.899 330.361C316.024 330.361 316.124 330.192 316.124 329.983C316.124 329.772 316.024 329.603 315.899 329.603C315.775 329.603 315.675 329.772 315.675 329.983Z" fill="white"/>
<path d="M309.556 330.329C309.556 330.983 309.869 331.509 310.257 331.509C310.645 331.509 310.96 330.983 310.96 330.329C310.96 329.679 310.645 329.151 310.257 329.151C309.869 329.151 309.556 329.679 309.556 330.329Z" fill="#0E121E"/>
<path d="M310.187 329.983C310.187 330.192 310.288 330.361 310.413 330.361C310.537 330.361 310.639 330.192 310.639 329.983C310.639 329.772 310.537 329.603 310.413 329.603C310.288 329.603 310.187 329.772 310.187 329.983Z" fill="white"/>
<path d="M312.597 334.435C312.716 334.435 312.817 334.344 312.829 334.223C312.841 334.095 312.747 333.983 312.619 333.969C312.293 333.937 312.052 333.843 311.899 333.685C311.759 333.541 311.691 333.279 311.812 333.12C311.881 333.032 312.015 332.971 312.171 332.959C312.341 332.945 312.531 332.987 312.697 333.021C312.823 333.044 312.948 332.967 312.973 332.84C313.001 332.713 312.92 332.591 312.793 332.564C312.607 332.524 312.372 332.473 312.135 332.493C311.845 332.515 311.593 332.64 311.443 332.836C311.161 333.203 311.284 333.721 311.564 334.009C311.795 334.249 312.135 334.392 312.575 334.435H312.597" fill="#7C3B2E"/>
<path d="M313.153 337.039C314.708 337.039 316.247 336.111 316.953 334.724L316.852 334.411L316.539 334.513C315.879 335.805 314.408 336.667 312.959 336.565C312.817 336.576 312.72 336.656 312.713 336.785C312.705 336.913 312.803 337.024 312.933 337.032L313.153 337.039" fill="#7C3B2E"/>
<path d="M314.731 328.301C314.861 328.175 315.091 328.031 315.304 327.949C315.525 327.864 315.763 327.813 316.007 327.808C316.492 327.801 316.995 327.956 317.449 328.217L317.768 328.132L317.7 327.824C317.223 327.489 316.649 327.24 316.021 327.192C315.711 327.169 315.391 327.207 315.085 327.295C314.773 327.389 314.503 327.508 314.208 327.741C314.043 327.875 314.013 328.115 314.147 328.281C314.279 328.447 314.52 328.475 314.685 328.343L314.715 328.317L314.731 328.301" fill="#0E121E"/>
<path d="M311.917 327.765C311.672 327.536 311.441 327.409 311.165 327.308C310.896 327.212 310.604 327.168 310.321 327.192C310.04 327.219 309.769 327.292 309.528 327.409C309.284 327.524 309.071 327.675 308.869 327.835L308.832 328.163L309.137 328.215L309.151 328.208C309.341 328.088 309.533 327.979 309.736 327.909C309.937 327.836 310.141 327.808 310.34 327.808C310.539 327.813 310.729 327.865 310.904 327.948C311.073 328.025 311.255 328.167 311.348 328.277L311.36 328.292C311.497 328.455 311.739 328.476 311.901 328.339C312.064 328.204 312.085 327.961 311.949 327.799L311.917 327.765" fill="#0E121E"/>
<path d="M326.908 332.424C325.523 331.879 324.503 330.64 323.899 329.279C323.296 327.919 323.059 326.431 322.825 324.96C322.115 325.484 321.149 325.707 320.273 325.596C319.397 325.484 318.571 325.025 318.013 324.34C317.524 325.121 316.635 325.559 315.716 325.607C314.795 325.656 313.863 325.232 313.293 324.507C312.765 325.211 311.928 325.581 311.056 325.693C310.183 325.805 309.271 325.551 308.58 325.005C308.291 325.353 307.829 325.484 307.379 325.52C307.563 324.721 307.648 323.9 307.832 323.101C312.596 321.147 317.823 320.563 322.953 321.021C324.312 321.144 325.692 321.335 326.925 321.92C328.619 322.723 329.939 324.275 330.459 326.075C330.981 327.873 330.696 329.889 329.696 331.475C329.215 332.236 327.748 332.753 326.908 332.424" fill="#0E121E"/>
<path d="M326.747 334.967C327.808 336.423 330.303 336.409 332.32 334.939C334.337 333.469 335.112 331.097 334.051 329.643C332.991 328.188 330.496 328.2 328.479 329.671C326.461 331.141 325.685 333.512 326.747 334.967" fill="#9F5C47"/>
<path d="M329.473 334.856L329.74 334.831C329.868 334.807 329.952 334.685 329.927 334.557C329.903 334.433 329.78 334.345 329.655 334.372C329.173 334.469 328.621 334.171 328.371 333.692C328.136 333.245 328.14 332.637 328.381 332.107C328.596 331.636 328.979 331.209 329.521 330.841C330.019 330.5 330.583 330.252 331.128 330.012L331.248 329.705L330.94 329.585C330.376 329.833 329.791 330.091 329.257 330.455C328.644 330.872 328.207 331.364 327.956 331.915C327.652 332.583 327.652 333.327 327.957 333.909C328.261 334.488 328.869 334.856 329.473 334.856" fill="#7C3B2E"/>
<path d="M300.651 367.803L296.795 386.865L285.461 406.58L291.157 411.129C291.157 411.129 304.723 395.635 305.932 390.511C307.141 385.388 309.423 369.519 309.423 369.519L300.651 367.803" fill="#9F5C47"/>
<path d="M285.505 406.436C286.251 405.8 287.325 405.72 288.157 406.24C289.807 407.269 292.405 409.08 292.788 410.492C293.356 412.587 289.324 416.976 289.324 416.976C289.324 416.976 290.663 416.453 291.008 417.019C291.353 417.585 289.064 421.721 283.703 417.604C278.384 413.524 283.049 408.536 285.505 406.436" fill="#9F5C47"/>
<path d="M307.741 354.603C307.741 354.603 300.949 359.687 297.952 369.881L307.052 373.763L307.741 354.603" fill="#F1494D"/>
<path d="M327.039 349.991C327.039 349.991 321.493 356.26 317.995 350.183C317.995 350.183 309.66 352.359 307.741 354.603C305.825 356.847 304.017 380.228 305.004 385.46C305.991 390.692 308.367 401.043 304.419 410.207C304.419 410.207 323.676 422.263 347.351 409.843C347.351 409.843 342.011 397.132 343.403 389.103C344.795 381.073 342.504 355.296 340.609 353.439C337.787 350.672 327.039 349.991 327.039 349.991" fill="#F1494D"/>
<path d="M340.609 353.439C340.609 353.439 347.351 357.909 351.22 368.008L341.369 371.756L340.609 353.439Z" fill="#F1494D"/>
<path d="M339.967 372.228L347.255 388.351L346.508 411.904L353.573 412.655C353.573 412.655 356.679 392.205 355.929 387.709C355.18 383.212 349.629 368.613 349.629 368.613L339.967 372.228" fill="#9F5C47"/>
<path d="M346.264 412.147C346.483 411.189 347.297 410.485 348.275 410.404C350.212 410.245 353.379 410.148 354.529 411.052C356.233 412.392 355.619 418.321 355.619 418.321C355.619 418.321 356.381 417.103 356.996 417.351C357.611 417.599 358.243 422.284 351.484 422.181C344.781 422.083 345.547 415.296 346.264 412.147" fill="#9F5C47"/>
</svg>
